<?xml version="1.0" encoding="UTF-8"?>
<svg id="Layer_1" data-name="Layer 1" xmlns="http://www.w3.org/2000/svg" viewBox="0 0 612 792">
  <defs>
    <style>
      .cls-1 {
        fill: #231f20;
      }
    </style>
  </defs>
  <path class="cls-1" d="m371.74,138c.07,1.25-10.41,1.58-21.45,5.23-1.44.48-16.31,5.54-26.44,15.82-11.09,11.24-13.61,25.78-15.17,38.95-3.89,32.83-.07,53.55-.07,96.93,0,0,1.43,47.92-10.58,71.67-5.72,11.31-14.53,18.23-14.53,18.23-3.41,2.68-7.74,6.08-14.33,7.85-4.84,1.3-8.54,1.09-8.66,2.09-.17,1.41,7.25,2.7,13.28,5.36,6.14,2.72,13.94,8.25,20.94,20.68,2.57,4.06,6.46,10.94,9.23,20.13,3.72,12.31,3.53,22.41,3.45,26.68-.6,32.34.33,64.7-.05,97.04-.17,14.61-.21,29.13,5.81,46.46,5.49,15.79,11.95,22.23,13.51,23.73,11.37,10.94,27.09,14.46,30.38,15.19,7.48,1.67,14.08,1.84,14.08,2.95,0,1.07-6.12,2.16-11.02,2.41-3.57.18-13.32.28-24.99-5.14-17.74-8.23-26.62-22.99-30.2-29.12-5.93-10.17-8.08-19.05-9.91-26.85-3.08-13.17-3.23-23.2-3.2-38.47.05-29.94.08-44.91.82-63.35.73-17.94,1.5-29.09-.99-45.46-2.18-14.37-5.21-21.77-9.54-28.08-2.25-3.28-8.76-12.52-20.55-17.71-11.02-4.85-21.33-3.81-21.32-5.11,0-1.05,6.83-1.1,14.04-3.06,0,0,14.15-3.85,25.53-15.83,11.54-12.14,12.56-28.91,13.06-44.19,1.74-52.63-3.03-75.24-.19-115.85,1.78-25.55,4.6-39.03,13.42-51.53,1.41-2,13.25-18.35,33.06-25.49,2.19-.79,11.94-4.15,24.51-3.57,1.41.07,7.99.42,8.04,1.4Z"/>
</svg>