<svg width="165" height="154" viewBox="0 0 165 154" fill="none" xmlns="http://www.w3.org/2000/svg">
<g opacity="0.1">
<path d="M10.3757 20.9695H157.194" stroke="#263238" stroke-linecap="round" stroke-linejoin="round"/>
<path d="M10.3757 23.5212H157.194" stroke="#263238" stroke-linecap="round" stroke-linejoin="round"/>
<path d="M10.3757 26.0698H157.194" stroke="#263238" stroke-linecap="round" stroke-linejoin="round"/>
<path d="M10.3757 28.6184H157.194" stroke="#263238" stroke-linecap="round" stroke-linejoin="round"/>
<path d="M10.3757 31.1667H157.194" stroke="#263238" stroke-linecap="round" stroke-linejoin="round"/>
<path d="M21.7576 19.0564H21.3616V26.514C20.8777 26.2384 20.0078 26.2157 19.1279 26.514C17.9129 26.9031 17.0972 27.7234 17.324 28.3459C17.5507 28.9685 18.7014 29.1533 19.9165 28.761C20.9149 28.4367 21.6358 27.8304 21.7441 27.2792L21.7576 19.0564Z" fill="#263238" stroke="#263238" stroke-linecap="round" stroke-linejoin="round"/>
<path d="M34.8011 19.0564H34.3882V26.514C33.9043 26.2384 33.0345 26.2157 32.1579 26.514C30.9429 26.9031 30.1272 27.7234 30.3506 28.3459C30.5739 28.9685 31.7314 29.1533 32.9465 28.761C33.9415 28.4367 34.6658 27.8304 34.7707 27.2792L34.8011 19.0564Z" fill="#263238" stroke="#263238" stroke-linecap="round" stroke-linejoin="round"/>
<path d="M60.9934 36.1601H61.3928V28.7026C61.8768 28.9814 62.7466 29.0041 63.6232 28.7026C64.8382 28.3102 65.6538 27.4899 65.4305 26.8706C65.2071 26.2513 64.0496 26.0632 62.8346 26.4556C61.8396 26.7798 61.1187 27.3829 61.0104 27.9341L60.9934 36.1601Z" fill="#263238" stroke="#263238" stroke-linecap="round" stroke-linejoin="round"/>
<path d="M55.795 23.5115C55.7307 21.9843 55.0639 20.9662 54.0012 20.3307C53.4297 20.0209 52.9444 19.5838 52.5865 19.0564H52.1871V26.514C51.7031 26.2384 50.8333 26.2157 49.9568 26.514C48.7417 26.9031 47.9261 27.7234 48.1495 28.3459C48.3728 28.9685 49.5303 29.1533 50.7453 28.761C51.7404 28.4367 52.4613 27.8304 52.5696 27.2792H52.5865V21.031C53.0817 21.4813 53.6541 21.8466 54.2787 22.1108C55.6054 22.6847 55.8051 25.418 55.8051 25.418C55.8547 24.7833 55.8513 24.1457 55.795 23.5115Z" fill="#263238" stroke="#263238" stroke-linecap="round" stroke-linejoin="round"/>
<path d="M105.753 19.0564H105.354V26.514C104.873 26.2384 104 26.2157 103.123 26.514C101.908 26.9031 101.092 27.7234 101.319 28.3459C101.546 28.9685 102.697 29.1533 103.912 28.761C104.91 28.4367 105.631 27.8304 105.739 27.2792L105.753 19.0564Z" fill="#263238" stroke="#263238" stroke-linecap="round" stroke-linejoin="round"/>
<path d="M118.797 19.0564H118.397V26.514C117.913 26.2384 117.044 26.2157 116.167 26.514C114.952 26.9031 114.136 27.7234 114.36 28.3459C114.583 28.9685 115.741 29.1533 116.956 28.761C117.951 28.4367 118.672 27.8304 118.78 27.2792L118.797 19.0564Z" fill="#263238" stroke="#263238" stroke-linecap="round" stroke-linejoin="round"/>
<path d="M144.989 36.1601H145.399V28.7026C145.883 28.9814 146.752 29.0041 147.629 28.7026C148.844 28.3102 149.66 27.4899 149.436 26.8706C149.213 26.2513 148.055 26.0632 146.84 26.4556C145.845 26.7798 145.124 27.3829 145.016 27.9341L144.989 36.1601Z" fill="#263238" stroke="#263238" stroke-linecap="round" stroke-linejoin="round"/>
<path d="M139.791 23.5115C139.723 21.9843 139.06 20.9662 137.997 20.3307C137.431 20.0188 136.952 19.5819 136.599 19.0564H136.2V26.514C135.716 26.2384 134.846 26.2157 133.969 26.514C132.754 26.9031 131.939 27.7234 132.162 28.3459C132.385 28.9685 133.543 29.1533 134.758 28.761C135.753 28.4367 136.474 27.8304 136.582 27.2792H136.599V21.031C137.094 21.4813 137.667 21.8466 138.291 22.1108C139.618 22.6847 139.818 25.418 139.818 25.418C139.862 24.7828 139.853 24.1453 139.791 23.5115Z" fill="#263238" stroke="#263238" stroke-linecap="round" stroke-linejoin="round"/>
<path d="M79.4826 18.5247V19.0564V26.514C79.002 26.2384 78.1288 26.2157 77.2523 26.514C76.0373 26.9031 75.2216 27.7234 75.4484 28.346C75.6751 28.9685 76.8258 29.1533 78.0409 28.761C79.0359 28.4367 79.7602 27.8304 79.8685 27.2792V20.0162H92.7091V26.501C92.2251 26.2254 91.3553 26.2027 90.4787 26.501C89.2637 26.8901 88.4481 27.7104 88.6714 28.333C88.8948 28.9555 90.0489 29.1403 91.2639 28.748C92.2624 28.4238 92.9832 27.8174 93.0916 27.2662V18.5247H79.4826Z" fill="#263238" stroke="#263238" stroke-linecap="round" stroke-linejoin="round"/>
<path d="M10.3757 49.2239H157.194" stroke="#263238" stroke-linecap="round" stroke-linejoin="round"/>
<path d="M10.3757 51.7725H157.194" stroke="#263238" stroke-linecap="round" stroke-linejoin="round"/>
<path d="M10.3757 54.321H157.194" stroke="#263238" stroke-linecap="round" stroke-linejoin="round"/>
<path d="M10.3757 56.8696H157.194" stroke="#263238" stroke-linecap="round" stroke-linejoin="round"/>
<path d="M10.3757 59.418H157.194" stroke="#263238" stroke-linecap="round" stroke-linejoin="round"/>
<path d="M21.7576 47.3076H21.3616V54.7652C20.8777 54.4896 20.0078 54.4669 19.1279 54.7652C17.9129 55.1575 17.0972 55.9746 17.324 56.5971C17.5507 57.2197 18.7014 57.4045 19.9165 57.0122C20.9149 56.6879 21.6358 56.0816 21.7441 55.5304L21.7576 47.3076Z" fill="#263238" stroke="#263238" stroke-linecap="round" stroke-linejoin="round"/>
<path d="M34.8011 47.3076H34.3882V54.7652C33.9043 54.4896 33.0345 54.4669 32.1579 54.7652C30.9429 55.1575 30.1272 55.9746 30.3506 56.5971C30.5739 57.2197 31.7314 57.4045 32.9465 57.0122C33.9415 56.6879 34.6658 56.0816 34.7707 55.5304L34.8011 47.3076Z" fill="#263238" stroke="#263238" stroke-linecap="round" stroke-linejoin="round"/>
<path d="M60.9934 64.4113H61.3928V56.9537C61.8768 57.2325 62.7466 57.2552 63.6232 56.9699C64.8382 56.5776 65.6538 55.7572 65.4305 55.1379C65.2071 54.5186 64.0496 54.3306 62.8346 54.7229C61.8396 55.0471 61.1187 55.6502 61.0104 56.2014L60.9934 64.4113Z" fill="#263238" stroke="#263238" stroke-linecap="round" stroke-linejoin="round"/>
<path d="M55.795 51.7627C55.7307 50.2355 55.0639 49.2174 54.0012 48.5819C53.4297 48.2721 52.9444 47.8351 52.5865 47.3076H52.1871V54.7652C51.7031 54.4896 50.8333 54.4669 49.9568 54.7652C48.7417 55.1575 47.9261 55.9746 48.1495 56.5971C48.3728 57.2197 49.5303 57.4045 50.7453 57.0122C51.7404 56.6879 52.4613 56.0816 52.5696 55.5304H52.5865V49.2823C53.0817 49.7326 53.6541 50.0978 54.2787 50.362C55.6054 50.9359 55.8051 53.6692 55.8051 53.6692C55.8547 53.0345 55.8513 52.3969 55.795 51.7627Z" fill="#263238" stroke="#263238" stroke-linecap="round" stroke-linejoin="round"/>
<path d="M105.753 47.3076H105.354V54.7652C104.873 54.4896 104 54.4669 103.123 54.7652C101.908 55.1575 101.092 55.9746 101.319 56.5971C101.546 57.2197 102.697 57.4045 103.912 57.0122C104.91 56.6879 105.631 56.0816 105.739 55.5304L105.753 47.3076Z" fill="#263238" stroke="#263238" stroke-linecap="round" stroke-linejoin="round"/>
<path d="M118.797 47.3076H118.397V54.7652C117.913 54.4896 117.044 54.4669 116.167 54.7652C114.952 55.1575 114.136 55.9746 114.36 56.5971C114.583 57.2197 115.741 57.4045 116.956 57.0122C117.951 56.6879 118.672 56.0816 118.78 55.5304L118.797 47.3076Z" fill="#263238" stroke="#263238" stroke-linecap="round" stroke-linejoin="round"/>
<path d="M144.989 64.4113H145.399V56.9537C145.883 57.2325 146.752 57.2552 147.629 56.9699C148.844 56.5776 149.66 55.7572 149.436 55.1379C149.213 54.5186 148.055 54.3306 146.84 54.7229C145.845 55.0471 145.124 55.6502 145.016 56.2014L144.989 64.4113Z" fill="#263238" stroke="#263238" stroke-linecap="round" stroke-linejoin="round"/>
<path d="M139.791 51.7627C139.723 50.2355 139.06 49.2174 137.997 48.5819C137.425 48.2721 136.94 47.8351 136.582 47.3076H136.183V54.7652C135.699 54.4896 134.829 54.4669 133.952 54.7652C132.737 55.1575 131.922 55.9746 132.145 56.5971C132.369 57.2197 133.526 57.4045 134.741 57.0122C135.736 56.6879 136.457 56.0816 136.565 55.5304H136.599V49.2823C137.094 49.7326 137.667 50.0978 138.291 50.362C139.618 50.9359 139.818 53.6692 139.818 53.6692C139.862 53.0341 139.853 52.3965 139.791 51.7627Z" fill="#263238" stroke="#263238" stroke-linecap="round" stroke-linejoin="round"/>
<path d="M79.4826 46.7793V47.3078V54.7654C79.002 54.4898 78.1288 54.4671 77.2523 54.7654C76.0373 55.1577 75.2216 55.9748 75.4484 56.5973C75.6751 57.2199 76.8258 57.4047 78.0409 57.0124C79.0359 56.6881 79.7602 56.0818 79.8685 55.5306V48.2708H92.7091V54.7557C92.2251 54.48 91.3553 54.4573 90.4787 54.7557C89.2637 55.148 88.4481 55.9651 88.6714 56.5876C88.8948 57.2102 90.0489 57.395 91.2639 57.0026C92.2624 56.6784 92.9832 56.0721 93.0916 55.5209V46.7793H79.4826Z" fill="#263238" stroke="#263238" stroke-linecap="round" stroke-linejoin="round"/>
<path d="M69.0893 74.2003L108.556 23.1646H131.35L133.042 24.4129L126.784 33.7705C126.784 33.7705 132.385 36.8897 146.323 39.2599C160.26 41.6301 163.516 47.4957 161.952 51.9897C160.388 56.4837 157.004 62.4724 148.276 67.0896C139.547 71.7068 128.984 75.0757 128.984 75.0757H68.6967L69.0893 74.2003Z" fill="#263238" stroke="#263238" stroke-linecap="round" stroke-linejoin="round"/>
<path d="M105.167 39.1367L112.853 74.4499" stroke="#737373" stroke-width="4" stroke-linecap="round" stroke-linejoin="round"/>
<path d="M126.141 35.8911C126.141 35.8911 138.382 39.26 145.808 40.6348C153.233 42.0096 160.134 45.252 161.038 48.6209" stroke="#878787" stroke-linecap="round" stroke-linejoin="round"/>
<path d="M131.35 24.4128H111.161L82.6336 62.3459" stroke="#878787" stroke-linecap="round" stroke-linejoin="round"/>
<path d="M99.9146 74.544C99.8876 73.7075 99.8707 72.4332 99.9586 71.2627C100.108 69.3172 102.175 66.1429 102.473 64.94C102.771 63.737 101.732 64.3369 100.104 64.3369C96.3815 64.3087 92.6692 63.9559 89.0133 63.2831C84.4274 62.3817 83.6895 62.6833 78.9547 63.5847C76.1687 64.1337 73.2903 64.0827 70.5274 63.4355C70.3708 65.2107 70.0744 66.972 69.6407 68.7044C69.0044 71.2984 67.5017 73.8631 67.0888 74.5408L99.9146 74.544Z" fill="#616161" stroke="#263238" stroke-linecap="round" stroke-linejoin="round"/>
<path d="M89.2671 101.048H65.9482V104.673H89.2671V101.048Z" fill="#263238" stroke="#263238" stroke-linecap="round" stroke-linejoin="round"/>
<path d="M89.2673 101.048H81.6353V104.673H89.2673V101.048Z" fill="#263238" stroke="#263238" stroke-linecap="round" stroke-linejoin="round"/>
<path d="M49.4729 74.4045H161.133V95.0004H119.592C119.592 95.0004 117.457 93.8461 116.922 96.0218C116.735 96.8339 116.616 97.659 116.566 98.4892C116.517 99.1745 116.197 99.8161 115.673 100.284C115.148 100.753 114.457 101.013 113.74 101.012H42.3926V91.5602C42.3926 91.29 42.4482 91.0224 42.5562 90.7728C42.6643 90.5231 42.8226 90.2964 43.0223 90.1054C43.2219 89.9145 43.4588 89.7632 43.7195 89.66C43.9803 89.5569 44.2596 89.5041 44.5417 89.5045H46.7078C47.1047 89.5041 47.4975 89.428 47.8633 89.2804C48.2291 89.1329 48.5605 88.9169 48.8382 88.6452C49.1158 88.3735 49.3341 88.0514 49.4803 87.6979C49.6265 87.3444 49.6976 86.9665 49.6895 86.5863L49.4729 74.4045Z" fill="#263238" stroke="#263238" stroke-linecap="round" stroke-linejoin="round"/>
<path d="M94.4824 74.531V86.956C94.4824 87.6998 94.1739 88.4132 93.6249 88.9392C93.0759 89.4652 92.3312 89.7606 91.5548 89.7606H88.7491C88.18 89.7606 87.6342 89.9772 87.2318 90.3627C86.8294 90.7483 86.6033 91.2711 86.6033 91.8163V101.018H113.74C114.457 101.019 115.148 100.759 115.672 100.291C116.197 99.8226 116.516 99.181 116.566 98.4957C116.616 97.6655 116.735 96.8404 116.921 96.0283C117.456 93.8526 119.592 95.0069 119.592 95.0069H161.133V74.4045H96.1509L94.4824 74.531Z" fill="#263238" stroke="#263238" stroke-linecap="round" stroke-linejoin="round"/>
<path d="M94.4792 75.4453V87.6206C94.4797 87.8985 94.4229 88.1737 94.3122 88.4306C94.2015 88.6875 94.0391 88.9209 93.8341 89.1176C93.6292 89.3142 93.3858 89.4702 93.1178 89.5767C92.8499 89.6831 92.5626 89.7379 92.2726 89.7379H88.878C88.2927 89.7379 87.7314 89.9606 87.3176 90.3571C86.9038 90.7536 86.6713 91.2913 86.6713 91.852V94.0925" stroke="#878787" stroke-linecap="round" stroke-linejoin="round"/>
<path d="M119.592 95.007V74.917" stroke="#878787" stroke-linecap="round" stroke-linejoin="round"/>
<path d="M51.209 74.7871V93.8525" stroke="#878787" stroke-linecap="round" stroke-linejoin="round"/>
<path d="M86.421 96.667H42.3926V101.022H86.421V96.667Z" fill="#616161" stroke="#263238" stroke-linecap="round" stroke-linejoin="round"/>
<path d="M50.1394 95.1755H48.8296V95.6133H50.1394V95.1755Z" fill="#263238" stroke="#263238" stroke-linecap="round" stroke-linejoin="round"/>
<path d="M52.0011 95.1755H50.6913V95.6133H52.0011V95.1755Z" fill="#263238" stroke="#263238" stroke-linecap="round" stroke-linejoin="round"/>
<path d="M53.8625 95.1755H52.5527V95.6133H53.8625V95.1755Z" fill="#263238" stroke="#263238" stroke-linecap="round" stroke-linejoin="round"/>
<path d="M56.9556 95.1755H55.6458V95.6133H56.9556V95.1755Z" fill="#263238" stroke="#263238" stroke-linecap="round" stroke-linejoin="round"/>
<path d="M58.6886 95.1755H57.3788V95.6133H58.6886V95.1755Z" fill="#263238" stroke="#263238" stroke-linecap="round" stroke-linejoin="round"/>
<path d="M61.7719 95.1755H60.4621V95.6133H61.7719V95.1755Z" fill="#263238" stroke="#263238" stroke-linecap="round" stroke-linejoin="round"/>
<path d="M63.6299 95.1755H62.3201V95.6133H63.6299V95.1755Z" fill="#263238" stroke="#263238" stroke-linecap="round" stroke-linejoin="round"/>
<path d="M65.4912 95.1755H64.1815V95.6133H65.4912V95.1755Z" fill="#263238" stroke="#263238" stroke-linecap="round" stroke-linejoin="round"/>
<path d="M68.5881 95.1755H67.2784V95.6133H68.5881V95.1755Z" fill="#263238" stroke="#263238" stroke-linecap="round" stroke-linejoin="round"/>
<path d="M70.3177 95.1755H69.0079V95.6133H70.3177V95.1755Z" fill="#263238" stroke="#263238" stroke-linecap="round" stroke-linejoin="round"/>
<path d="M73.4007 95.1755H72.0909V95.6133H73.4007V95.1755Z" fill="#263238" stroke="#263238" stroke-linecap="round" stroke-linejoin="round"/>
<path d="M75.2621 95.1755H73.9523V95.6133H75.2621V95.1755Z" fill="#263238" stroke="#263238" stroke-linecap="round" stroke-linejoin="round"/>
<path d="M77.1238 95.1755H75.814V95.6133H77.1238V95.1755Z" fill="#263238" stroke="#263238" stroke-linecap="round" stroke-linejoin="round"/>
<path d="M80.2207 95.1755H78.9109V95.6133H80.2207V95.1755Z" fill="#263238" stroke="#263238" stroke-linecap="round" stroke-linejoin="round"/>
<path d="M81.9499 95.1755H80.6401V95.6133H81.9499V95.1755Z" fill="#263238" stroke="#263238" stroke-linecap="round" stroke-linejoin="round"/>
<path d="M85.0332 95.1755H83.7234V95.6133H85.0332V95.1755Z" fill="#263238" stroke="#263238" stroke-linecap="round" stroke-linejoin="round"/>
<path d="M86.3192 95.1755H85.5848V95.6133H86.3192V95.1755Z" fill="#263238" stroke="#263238" stroke-linecap="round" stroke-linejoin="round"/>
<path d="M50.3831 95.5193V96.6509" stroke="#263238" stroke-linecap="round" stroke-linejoin="round"/>
<path d="M48.3828 95.5193V96.6509" stroke="#263238" stroke-linecap="round" stroke-linejoin="round"/>
<path d="M46.3792 95.5193V96.6509" stroke="#263238" stroke-linecap="round" stroke-linejoin="round"/>
<path d="M52.2783 95.5193V96.6509" stroke="#263238" stroke-linecap="round" stroke-linejoin="round"/>
<path d="M54.1704 95.5193V96.6509" stroke="#263238" stroke-linecap="round" stroke-linejoin="round"/>
<path d="M56.0659 95.5193V96.6509" stroke="#263238" stroke-linecap="round" stroke-linejoin="round"/>
<path d="M57.9611 95.5193V96.6509" stroke="#263238" stroke-linecap="round" stroke-linejoin="round"/>
<path d="M59.8528 95.5193V96.6509" stroke="#263238" stroke-linecap="round" stroke-linejoin="round"/>
<path d="M61.7484 95.5193V96.6509" stroke="#263238" stroke-linecap="round" stroke-linejoin="round"/>
<path d="M63.6435 95.5193V96.6509" stroke="#263238" stroke-linecap="round" stroke-linejoin="round"/>
<path d="M65.5352 95.5193V96.6509" stroke="#263238" stroke-linecap="round" stroke-linejoin="round"/>
<path d="M67.4308 95.5193V96.6509" stroke="#263238" stroke-linecap="round" stroke-linejoin="round"/>
<path d="M69.3259 95.5193V96.6509" stroke="#263238" stroke-linecap="round" stroke-linejoin="round"/>
<path d="M71.2177 95.5193V96.6509" stroke="#263238" stroke-linecap="round" stroke-linejoin="round"/>
<path d="M73.1132 95.5193V96.6509" stroke="#263238" stroke-linecap="round" stroke-linejoin="round"/>
<path d="M75.0084 95.5193V96.6509" stroke="#263238" stroke-linecap="round" stroke-linejoin="round"/>
<path d="M76.9001 95.5193V96.6509" stroke="#263238" stroke-linecap="round" stroke-linejoin="round"/>
<path d="M78.7956 95.5193V96.6509" stroke="#263238" stroke-linecap="round" stroke-linejoin="round"/>
<path d="M80.6908 95.5193V96.6509" stroke="#263238" stroke-linecap="round" stroke-linejoin="round"/>
<path d="M82.5863 95.5193V96.6509" stroke="#263238" stroke-linecap="round" stroke-linejoin="round"/>
<path d="M84.4781 95.5193V96.6509" stroke="#263238" stroke-linecap="round" stroke-linejoin="round"/>
<path d="M86.4208 95.5452H45.8683V96.6962H86.4208V95.5452Z" fill="#FEFEFE" stroke="#263238" stroke-linecap="round" stroke-linejoin="round"/>
<path d="M50.3831 95.5193V96.6509" stroke="#263238" stroke-linecap="round" stroke-linejoin="round"/>
<path d="M48.3828 95.5193V96.6509" stroke="#263238" stroke-linecap="round" stroke-linejoin="round"/>
<path d="M46.3792 95.5193V96.6509" stroke="#263238" stroke-linecap="round" stroke-linejoin="round"/>
<path d="M52.2783 95.5193V96.6509" stroke="#263238" stroke-linecap="round" stroke-linejoin="round"/>
<path d="M54.1704 95.5193V96.6509" stroke="#263238" stroke-linecap="round" stroke-linejoin="round"/>
<path d="M56.0659 95.5193V96.6509" stroke="#263238" stroke-linecap="round" stroke-linejoin="round"/>
<path d="M57.9611 95.5193V96.6509" stroke="#263238" stroke-linecap="round" stroke-linejoin="round"/>
<path d="M59.8528 95.5193V96.6509" stroke="#263238" stroke-linecap="round" stroke-linejoin="round"/>
<path d="M61.7484 95.5193V96.6509" stroke="#263238" stroke-linecap="round" stroke-linejoin="round"/>
<path d="M63.6435 95.5193V96.6509" stroke="#263238" stroke-linecap="round" stroke-linejoin="round"/>
<path d="M65.5352 95.5193V96.6509" stroke="#263238" stroke-linecap="round" stroke-linejoin="round"/>
<path d="M67.4308 95.5193V96.6509" stroke="#263238" stroke-linecap="round" stroke-linejoin="round"/>
<path d="M69.3259 95.5193V96.6509" stroke="#263238" stroke-linecap="round" stroke-linejoin="round"/>
<path d="M71.2177 95.5193V96.6509" stroke="#263238" stroke-linecap="round" stroke-linejoin="round"/>
<path d="M73.1132 95.5193V96.6509" stroke="#263238" stroke-linecap="round" stroke-linejoin="round"/>
<path d="M75.0084 95.5193V96.6509" stroke="#263238" stroke-linecap="round" stroke-linejoin="round"/>
<path d="M76.9001 95.5193V96.6509" stroke="#263238" stroke-linecap="round" stroke-linejoin="round"/>
<path d="M78.7956 95.5193V96.6509" stroke="#263238" stroke-linecap="round" stroke-linejoin="round"/>
<path d="M80.6908 95.5193V96.6509" stroke="#263238" stroke-linecap="round" stroke-linejoin="round"/>
<path d="M82.5863 95.5193V96.6509" stroke="#263238" stroke-linecap="round" stroke-linejoin="round"/>
<path d="M84.4781 95.5193V96.6509" stroke="#263238" stroke-linecap="round" stroke-linejoin="round"/>
<path d="M54.0893 117.185L55.2231 127.895H58.4722L59.3014 117.256L54.0893 117.185Z" fill="#263238" stroke="#263238" stroke-linecap="round" stroke-linejoin="round"/>
<path d="M51.5237 117.185L52.6541 127.895H56.421L56.7357 117.256L51.5237 117.185Z" fill="#263238" stroke="#263238" stroke-linecap="round" stroke-linejoin="round"/>
<path d="M44.2032 101.048H65.9552V102.549C65.9552 102.979 65.7769 103.391 65.4595 103.695C65.1422 103.999 64.7118 104.17 64.2629 104.17H46.2339C45.6954 104.17 45.1788 103.965 44.798 103.6C44.4172 103.235 44.2032 102.741 44.2032 102.225V101.064V101.048Z" fill="#263238" stroke="#263238" stroke-linecap="round" stroke-linejoin="round"/>
<path d="M65.9483 102.63V101.048H50.3155V102.306C50.3155 102.797 50.519 103.268 50.8813 103.616C51.2437 103.964 51.7352 104.159 52.248 104.16H64.3509C64.7745 104.16 65.1809 103.999 65.4805 103.712C65.78 103.425 65.9483 103.036 65.9483 102.63Z" fill="#263238" stroke="#263238" stroke-linecap="round" stroke-linejoin="round"/>
<path d="M59.2535 108.431H50.2949C49.9842 108.432 49.6813 108.338 49.43 108.163C49.1787 107.988 48.992 107.741 48.8971 107.458L47.8276 104.173H61.7242L60.6547 107.458C60.5601 107.742 60.373 107.99 60.1209 108.165C59.8688 108.34 59.5649 108.433 59.2535 108.431Z" fill="#263238" stroke="#263238" stroke-linecap="round" stroke-linejoin="round"/>
<path d="M60.6481 107.445L61.7176 104.16H53.3411L54.4106 107.445C54.506 107.728 54.6927 107.975 54.9439 108.149C55.1952 108.324 55.4979 108.418 55.8084 108.417H59.2605C59.5695 108.417 59.8704 108.323 60.1198 108.148C60.3692 107.973 60.5542 107.727 60.6481 107.445Z" fill="#263238" stroke="#263238" stroke-linecap="round" stroke-linejoin="round"/>
<path d="M51.2191 108.502L48.3322 111.537V112.736C48.3317 112.893 48.3634 113.047 48.4255 113.192C48.4875 113.336 48.5787 113.467 48.6938 113.578C48.8088 113.688 48.9455 113.776 49.0961 113.836C49.2466 113.896 49.4079 113.926 49.5709 113.926H61.3082C61.6376 113.926 61.9535 113.801 62.1865 113.578C62.4194 113.355 62.5503 113.052 62.5503 112.736V111.248L59.2538 108.427L51.2191 108.502Z" fill="#263238" stroke="#263238" stroke-linecap="round" stroke-linejoin="round"/>
<path d="M48.3322 111.54H62.5503" stroke="#263238" stroke-linecap="round" stroke-linejoin="round"/>
<path d="M61.1152 113.93H50.1631V115.827H61.1152V113.93Z" fill="#263238" stroke="#263238" stroke-linecap="round" stroke-linejoin="round"/>
<path d="M60.787 117.474H50.2952C50.0654 117.474 49.845 117.386 49.6825 117.231C49.5201 117.075 49.4288 116.864 49.4288 116.644C49.4288 116.423 49.5199 116.212 49.6823 116.056C49.8447 115.899 50.0651 115.811 50.2952 115.81H60.787C61.0177 115.81 61.2389 115.898 61.4021 116.054C61.5652 116.211 61.6568 116.423 61.6568 116.644C61.6559 116.864 61.5639 117.075 61.4009 117.231C61.2378 117.386 61.0171 117.474 60.787 117.474Z" fill="#263238" stroke="#263238" stroke-linecap="round" stroke-linejoin="round"/>
<path d="M52.6541 127.895L53.1076 130.933H58.0929L58.4719 127.895H52.6541Z" fill="#263238" stroke="#263238" stroke-linecap="round" stroke-linejoin="round"/>
<path d="M56.2689 127.895L56.1166 130.933H58.0931L58.4722 127.895H56.2689Z" fill="#263238" stroke="#263238" stroke-linecap="round" stroke-linejoin="round"/>
<path d="M54.0146 130.956L54.6949 133.323H56.3566L57.2637 130.956H54.0146Z" fill="#263238" stroke="#263238" stroke-linecap="round" stroke-linejoin="round"/>
<path d="M56.7187 136.552C57.5711 136.552 58.262 135.89 58.262 135.074C58.262 134.257 57.5711 133.595 56.7187 133.595C55.8664 133.595 55.1754 134.257 55.1754 135.074C55.1754 135.89 55.8664 136.552 56.7187 136.552Z" fill="#263238" stroke="#263238" stroke-linecap="round" stroke-linejoin="round"/>
<path d="M55.1551 133.358L56.4243 135.112C56.4551 135.156 56.4947 135.193 56.5407 135.221C56.5867 135.25 56.6382 135.269 56.6922 135.278C56.7462 135.287 56.8015 135.286 56.8549 135.274C56.9083 135.262 56.9587 135.24 57.003 135.21C57.0486 135.179 57.0871 135.139 57.1162 135.093C57.1453 135.047 57.1644 134.996 57.1723 134.943C57.1803 134.89 57.1768 134.836 57.1623 134.784C57.1477 134.733 57.1223 134.684 57.0876 134.642L56.0249 133.345L55.1551 133.358Z" fill="#263238" stroke="#263238" stroke-linecap="round" stroke-linejoin="round"/>
<path d="M59.0745 128.041H52.2041C52.0631 128.041 51.928 127.987 51.8283 127.892C51.7287 127.796 51.6727 127.667 51.6727 127.532C51.6727 127.465 51.6865 127.399 51.7132 127.337C51.74 127.276 51.7791 127.22 51.8285 127.173C51.8779 127.126 51.9365 127.089 52.001 127.063C52.0654 127.038 52.1344 127.025 52.2041 127.026H59.0745C59.1441 127.025 59.2131 127.038 59.2776 127.063C59.342 127.089 59.4007 127.126 59.45 127.173C59.4994 127.22 59.5386 127.276 59.5654 127.337C59.5921 127.399 59.6059 127.465 59.6059 127.532C59.6059 127.667 59.5499 127.796 59.4502 127.892C59.3506 127.987 59.2154 128.041 59.0745 128.041Z" fill="#263238" stroke="#263238" stroke-linecap="round" stroke-linejoin="round"/>
<path d="M85.3074 101.048H107.059V102.549C107.059 102.979 106.881 103.391 106.564 103.695C106.246 103.999 105.816 104.17 105.367 104.17H87.3414C86.8029 104.17 86.2863 103.965 85.9055 103.6C85.5247 103.235 85.3108 102.741 85.3108 102.225V101.064L85.3074 101.048Z" fill="#263238" stroke="#263238" stroke-linecap="round" stroke-linejoin="round"/>
<path d="M107.059 102.63V101.048H91.4264V102.306C91.4264 102.797 91.6299 103.268 91.9922 103.616C92.3546 103.964 92.8461 104.159 93.3589 104.16H105.462C105.885 104.16 106.292 103.999 106.591 103.712C106.891 103.425 107.059 103.036 107.059 102.63Z" fill="#263238" stroke="#263238" stroke-linecap="round" stroke-linejoin="round"/>
<path d="M100.365 108.431H91.3994C91.0887 108.432 90.7858 108.338 90.5345 108.163C90.2831 107.988 90.0965 107.741 90.0016 107.458L88.9321 104.173H102.829L101.759 107.458C101.665 107.741 101.479 107.988 101.228 108.163C100.977 108.338 100.675 108.432 100.365 108.431Z" fill="#263238" stroke="#263238" stroke-linecap="round" stroke-linejoin="round"/>
<path d="M101.759 107.445L102.829 104.16H94.4456L95.5151 107.445C95.6104 107.728 95.7972 107.975 96.0484 108.149C96.2997 108.324 96.6023 108.418 96.9129 108.417H100.365C100.675 108.418 100.978 108.325 101.228 108.15C101.479 107.975 101.665 107.728 101.759 107.445Z" fill="#263238" stroke="#263238" stroke-linecap="round" stroke-linejoin="round"/>
<path d="M92.33 108.502L89.4431 111.537V112.736C89.4426 112.893 89.4743 113.047 89.5364 113.192C89.5984 113.336 89.6896 113.467 89.8047 113.578C89.9197 113.688 90.0564 113.776 90.2069 113.836C90.3575 113.896 90.5188 113.926 90.6818 113.926H102.416C102.745 113.926 103.061 113.801 103.294 113.578C103.527 113.355 103.658 113.052 103.658 112.736V111.248L100.361 108.427L92.33 108.502Z" fill="#263238" stroke="#263238" stroke-linecap="round" stroke-linejoin="round"/>
<path d="M89.4431 111.54H103.661" stroke="#263238" stroke-linecap="round" stroke-linejoin="round"/>
<path d="M95.2002 117.185L96.334 127.895H99.5831L100.412 117.256L95.2002 117.185Z" fill="#263238" stroke="#263238" stroke-linecap="round" stroke-linejoin="round"/>
<path d="M92.6349 117.185L93.7653 127.895H97.5322L97.847 117.256L92.6349 117.185Z" fill="#263238" stroke="#263238" stroke-linecap="round" stroke-linejoin="round"/>
<path d="M93.7653 127.895L94.2188 130.933H99.2041L99.5832 127.895H93.7653Z" fill="#263238" stroke="#263238" stroke-linecap="round" stroke-linejoin="round"/>
<path d="M95.1255 130.956L95.8058 133.323H97.4675L98.3746 130.956H95.1255Z" fill="#263238" stroke="#263238" stroke-linecap="round" stroke-linejoin="round"/>
<path d="M97.8296 136.552C98.6819 136.552 99.3729 135.89 99.3729 135.074C99.3729 134.257 98.6819 133.595 97.8296 133.595C96.9772 133.595 96.2863 134.257 96.2863 135.074C96.2863 135.89 96.9772 136.552 97.8296 136.552Z" fill="#263238" stroke="#263238" stroke-linecap="round" stroke-linejoin="round"/>
<path d="M96.266 133.358L97.5352 135.112C97.566 135.156 97.6056 135.193 97.6516 135.221C97.6976 135.25 97.7491 135.269 97.8031 135.278C97.8571 135.287 97.9124 135.286 97.9658 135.274C98.0192 135.262 98.0696 135.24 98.1139 135.21C98.1595 135.179 98.198 135.139 98.2271 135.093C98.2563 135.047 98.2753 134.996 98.2833 134.943C98.2912 134.89 98.2877 134.836 98.2732 134.784C98.2586 134.733 98.2332 134.684 98.1986 134.642L97.1358 133.345L96.266 133.358Z" fill="#263238" stroke="#263238" stroke-linecap="round" stroke-linejoin="round"/>
<path d="M100.185 128.041H93.3149C93.174 128.041 93.0388 127.987 92.9392 127.892C92.8396 127.796 92.7836 127.667 92.7836 127.532C92.7836 127.465 92.7973 127.399 92.8241 127.337C92.8508 127.276 92.89 127.22 92.9394 127.173C92.9888 127.126 93.0474 127.089 93.1118 127.063C93.1763 127.038 93.2453 127.025 93.3149 127.026H100.185C100.255 127.025 100.324 127.038 100.388 127.063C100.453 127.089 100.512 127.126 100.561 127.173C100.61 127.22 100.649 127.276 100.676 127.337C100.703 127.399 100.717 127.465 100.717 127.532C100.717 127.667 100.661 127.796 100.561 127.892C100.461 127.987 100.326 128.041 100.185 128.041Z" fill="#263238" stroke="#263238" stroke-linecap="round" stroke-linejoin="round"/>
<path d="M102.226 113.93H91.274V115.827H102.226V113.93Z" fill="#263238" stroke="#263238" stroke-linecap="round" stroke-linejoin="round"/>
<path d="M101.884 117.474H91.3926C91.1628 117.474 90.9424 117.386 90.7799 117.231C90.6174 117.075 90.5262 116.864 90.5262 116.644C90.5262 116.423 90.6173 116.212 90.7797 116.056C90.9421 115.899 91.1625 115.811 91.3926 115.81H101.884C102.115 115.81 102.336 115.898 102.499 116.054C102.663 116.211 102.754 116.423 102.754 116.644C102.753 116.864 102.661 117.075 102.498 117.231C102.335 117.386 102.115 117.474 101.884 117.474Z" fill="#263238" stroke="#263238" stroke-linecap="round" stroke-linejoin="round"/>
<path d="M140.66 100.973H131.925L133.005 104.449H136.169L137.184 108.586H142.816L143.832 104.449H145.399C145.855 104.449 146.299 104.308 146.665 104.047C147.031 103.786 147.299 103.418 147.429 102.999L148.059 100.973H140.66Z" fill="#263238" stroke="#263238" stroke-linecap="round" stroke-linejoin="round"/>
<path d="M133.096 108.502L130.206 111.537V112.736C130.205 112.893 130.237 113.047 130.299 113.192C130.361 113.336 130.452 113.467 130.567 113.578C130.682 113.688 130.819 113.776 130.969 113.836C131.12 113.896 131.281 113.926 131.444 113.926H143.185C143.348 113.926 143.509 113.896 143.66 113.836C143.81 113.776 143.947 113.688 144.062 113.578C144.177 113.467 144.268 113.336 144.33 113.192C144.392 113.047 144.424 112.893 144.424 112.736V111.248L141.127 108.427L133.096 108.502Z" fill="#263238" stroke="#263238" stroke-linecap="round" stroke-linejoin="round"/>
<path d="M130.206 111.54H144.424" stroke="#263238" stroke-linecap="round" stroke-linejoin="round"/>
<path d="M142.989 113.93H132.036V115.827H142.989V113.93Z" fill="#263238" stroke="#263238" stroke-linecap="round" stroke-linejoin="round"/>
<path d="M135.966 117.185L137.1 127.895H140.346L141.178 117.256L135.966 117.185Z" fill="#263238" stroke="#263238" stroke-linecap="round" stroke-linejoin="round"/>
<path d="M133.397 117.185L134.531 127.895H138.298L138.609 117.256L133.397 117.185Z" fill="#263238" stroke="#263238" stroke-linecap="round" stroke-linejoin="round"/>
<path d="M142.65 117.474H132.158C131.928 117.474 131.708 117.386 131.545 117.231C131.382 117.075 131.29 116.864 131.289 116.644C131.289 116.423 131.38 116.211 131.543 116.054C131.707 115.898 131.928 115.81 132.158 115.81H142.65C142.88 115.811 143.101 115.899 143.263 116.056C143.426 116.212 143.517 116.423 143.517 116.644C143.517 116.864 143.425 117.075 143.263 117.231C143.1 117.386 142.88 117.474 142.65 117.474Z" fill="#263238" stroke="#263238" stroke-linecap="round" stroke-linejoin="round"/>
<path d="M134.531 127.895L134.984 130.933H139.966L140.345 127.895H134.531Z" fill="#263238" stroke="#263238" stroke-linecap="round" stroke-linejoin="round"/>
<path d="M135.888 130.956L136.569 133.323H138.23L139.137 130.956H135.888Z" fill="#263238" stroke="#263238" stroke-linecap="round" stroke-linejoin="round"/>
<path d="M138.596 136.552C139.448 136.552 140.139 135.89 140.139 135.074C140.139 134.257 139.448 133.595 138.596 133.595C137.744 133.595 137.053 134.257 137.053 135.074C137.053 135.89 137.744 136.552 138.596 136.552Z" fill="#263238" stroke="#263238" stroke-linecap="round" stroke-linejoin="round"/>
<path d="M137.029 133.358L138.298 135.112C138.328 135.156 138.368 135.193 138.414 135.221C138.46 135.25 138.512 135.269 138.566 135.278C138.62 135.287 138.675 135.286 138.728 135.274C138.782 135.262 138.832 135.24 138.876 135.21C138.922 135.179 138.961 135.139 138.991 135.094C139.02 135.048 139.039 134.997 139.047 134.943C139.055 134.89 139.052 134.836 139.037 134.784C139.022 134.732 138.996 134.684 138.961 134.642L137.898 133.345L137.029 133.358Z" fill="#263238" stroke="#263238" stroke-linecap="round" stroke-linejoin="round"/>
<path d="M140.951 128.041H134.077C134.008 128.041 133.939 128.028 133.875 128.002C133.81 127.976 133.752 127.939 133.703 127.891C133.654 127.844 133.615 127.788 133.589 127.726C133.562 127.665 133.549 127.598 133.549 127.532C133.549 127.398 133.605 127.269 133.704 127.174C133.803 127.079 133.937 127.026 134.077 127.026H140.951C141.091 127.026 141.226 127.079 141.325 127.174C141.424 127.269 141.479 127.398 141.479 127.532C141.48 127.598 141.466 127.665 141.44 127.726C141.414 127.788 141.375 127.844 141.326 127.891C141.277 127.939 141.218 127.976 141.154 128.002C141.09 128.028 141.021 128.041 140.951 128.041Z" fill="#263238" stroke="#263238" stroke-linecap="round" stroke-linejoin="round"/>
<path d="M135.319 100.973H126.601L127.298 103.213C127.409 103.57 127.637 103.883 127.949 104.106C128.261 104.329 128.639 104.449 129.028 104.449H130.845L131.861 108.586H137.492L138.508 104.449H140.092C140.548 104.449 140.992 104.308 141.358 104.047C141.724 103.786 141.992 103.418 142.122 102.999L142.752 100.973H135.319Z" fill="#263238" stroke="#263238" stroke-linecap="round" stroke-linejoin="round"/>
<path d="M153.067 94.9128H122.36V98.0158H153.067V94.9128Z" fill="#263238" stroke="#263238" stroke-linecap="round" stroke-linejoin="round"/>
<path d="M153.067 94.9128H139.943V98.0158H153.067V94.9128Z" fill="#263238" stroke="#263238" stroke-linecap="round" stroke-linejoin="round"/>
<path d="M151.893 98.0159H123.531V101.119H151.893V98.0159Z" fill="#263238" stroke="#263238" stroke-linecap="round" stroke-linejoin="round"/>
<path d="M151.893 98.0159H138.101V101.119H151.893V98.0159Z" fill="#263238" stroke="#263238" stroke-linecap="round" stroke-linejoin="round"/>
<path d="M73.5804 104.786H68.5071V127.272H73.5804V104.786Z" fill="#263238" stroke="#263238" stroke-linecap="round" stroke-linejoin="round"/>
<path d="M73.5799 104.786H71.045V127.272H73.5799V104.786Z" fill="#263238" stroke="#263238" stroke-linecap="round" stroke-linejoin="round"/>
<path d="M83.3715 104.786H78.2982V127.272H83.3715V104.786Z" fill="#263238" stroke="#263238" stroke-linecap="round" stroke-linejoin="round"/>
<path d="M83.368 104.786H80.8331V127.272H83.368V104.786Z" fill="#263238" stroke="#263238" stroke-linecap="round" stroke-linejoin="round"/>
<path d="M84.9012 127.049H66.1479V131.569H84.9012V127.049Z" fill="#263238" stroke="#263238" stroke-linecap="round" stroke-linejoin="round"/>
<path d="M84.9049 127.049H77.9295V131.569H84.9049V127.049Z" fill="#263238" stroke="#263238" stroke-linecap="round" stroke-linejoin="round"/>
<path d="M68.7406 129.516H61.5081V130.145H68.7406V129.516Z" fill="#263238" stroke="#263238" stroke-linecap="round" stroke-linejoin="round"/>
<path d="M65.4171 129.516H61.5081V130.145H65.4171V129.516Z" fill="#263238" stroke="#263238" stroke-linecap="round" stroke-linejoin="round"/>
<path d="M73.093 129.516H65.8604V130.145H73.093V129.516Z" fill="#263238" stroke="#263238" stroke-linecap="round" stroke-linejoin="round"/>
<path d="M69.7694 129.516H65.8604V130.145H69.7694V129.516Z" fill="#263238" stroke="#263238" stroke-linecap="round" stroke-linejoin="round"/>
<path d="M62.97 74.7871V93.8525" stroke="#878787" stroke-linecap="round" stroke-linejoin="round"/>
<path d="M49.9565 92.4062C49.9565 92.4062 52.1834 93.0547 52.4576 93.2233C52.7317 93.3919 53.5575 94.5657 53.6421 94.5916C53.7267 94.6176 49.6823 92.617 49.6823 92.617L49.9565 92.4062Z" fill="#B8B8B8" stroke="#263238" stroke-linecap="round" stroke-linejoin="round"/>
<path d="M45.79 90.9957C45.79 90.9957 48.3927 91.5502 48.7548 91.6183C49.1169 91.6863 52.3254 93.9431 53.2697 94.3516C54.2139 94.7602 54.6945 95.0714 54.5625 95.1687C54.1632 95.4605 54.2241 95.3892 52.0005 95.1687C50.7956 95.0487 50.3455 94.6629 50.3455 94.6629C50.3455 94.6629 47.8139 94.8704 46.5109 94.5915C45.2079 94.3127 43.9083 92.7207 43.9083 92.7207L44.4159 90.5061L45.79 90.9957Z" fill="#B8B8B8" stroke="#263238" stroke-linecap="round" stroke-linejoin="round"/>
<path d="M47.5397 92.7662C47.5397 92.7662 50.7414 94.2545 52.1426 94.8057C52.9481 95.1299 51.0359 95.7363 50.3827 95.519C49.8753 95.3647 49.3558 95.2498 48.8292 95.1753C48.0195 95.1621 47.2248 94.9643 46.5108 94.5982C45.306 93.9886 44.4125 92.4614 44.4125 92.4614" fill="#B8B8B8"/>
<path d="M47.5397 92.7662C47.5397 92.7662 50.7414 94.2545 52.1426 94.8057C52.9481 95.1299 51.0359 95.7363 50.3827 95.519C49.8753 95.3647 49.3558 95.2498 48.8292 95.1753C48.0195 95.1621 47.2248 94.9643 46.5108 94.5982C45.306 93.9886 44.4125 92.4614 44.4125 92.4614" stroke="#263238" stroke-linecap="round" stroke-linejoin="round"/>
<path d="M45.2654 90.2306L43.8574 93.7745L40.5745 92.8764L42.4495 88.9336L45.2654 90.2306Z" fill="#D4AF37" stroke="#263238" stroke-linecap="round" stroke-linejoin="round"/>
<path d="M42.8693 88.483C42.8693 88.483 41.4106 93.0743 40.9909 93.3758C40.5712 93.6773 35.9887 93.1748 35.9887 93.1748L37.0954 85.9863C37.0954 85.9863 43.0757 87.5848 42.8693 88.483Z" fill="#D4AF37" stroke="#263238" stroke-linecap="round" stroke-linejoin="round"/>
<path d="M43.0655 127.081C43.0655 127.081 39.9484 132.745 39.8401 133.053C39.7318 133.361 43.0655 135.216 43.8169 135.216C44.5682 135.216 44.5682 134.804 45.3196 135.112C46.0709 135.42 47.1472 136.244 48.3284 136.448C49.5095 136.652 52.7282 136.348 53.1647 136.04C53.6013 135.732 52.9515 135.317 52.0919 134.7C51.2322 134.084 49.2963 133.258 48.6533 132.538C48.0102 131.818 46.8257 130.067 46.8257 130.067L48.1151 127.392L43.0655 127.081Z" fill="#B8B8B8" stroke="#263238" stroke-linecap="round" stroke-linejoin="round"/>
<path d="M52.0921 134.7C51.2324 134.081 49.2965 133.258 48.6535 132.538C48.0104 131.818 46.8259 130.067 46.8259 130.067L45.5364 131.315C45.5364 131.315 43.0759 130.281 41.6544 129.671C40.8117 131.212 39.8979 132.914 39.8403 133.066C39.7354 133.374 43.0657 135.229 43.8171 135.229C44.5684 135.229 44.5684 134.817 45.3198 135.125C46.0711 135.433 47.1474 136.257 48.3286 136.461C49.5097 136.665 52.7284 136.36 53.165 136.052C53.6016 135.744 52.9517 135.316 52.0921 134.7Z" fill="#263238" stroke="#263238" stroke-linecap="round" stroke-linejoin="round"/>
<path d="M53.1512 127.139L53.2595 132.184L53.4762 135.582C53.4762 135.582 55.1955 136.406 55.9468 136.302C56.6785 136.208 57.4153 136.154 58.1535 136.14C58.5833 136.14 62.824 136.714 64.1135 136.51C65.403 136.305 67.5521 135.686 67.3355 134.862C67.1189 134.039 63.2539 133.316 61.3179 132.392C60.1262 131.807 59.0677 131.002 58.2042 130.021L58.4175 124.979L53.1512 127.139Z" fill="#B8B8B8" stroke="#263238" stroke-linecap="round" stroke-linejoin="round"/>
<path d="M61.3181 132.392C60.1264 131.807 59.0679 131.002 58.2044 130.021C58.2044 130.021 57.7746 130.021 57.6663 130.949L57.558 131.876C57.558 131.876 55.8387 132.596 54.2277 132.288C53.8656 132.22 53.5508 132.155 53.2597 132.097V132.184L53.4763 135.582C53.4763 135.582 55.1956 136.406 55.947 136.302C56.6787 136.208 57.4155 136.154 58.1537 136.14C58.5835 136.14 62.8242 136.714 64.1137 136.51C65.4032 136.305 67.5523 135.686 67.3357 134.862C67.1191 134.039 63.254 133.316 61.3181 132.392Z" fill="#263238" stroke="#263238" stroke-linecap="round" stroke-linejoin="round"/>
<path d="M59.6595 105.781C59.2432 104.721 55.5338 104.854 52.8262 105.133L53.0767 103.936L32.0186 108.294L47.9797 110.155L41.9824 128.219L48.968 128.115L58.3632 113.608C58.3632 113.608 60.3059 107.428 59.6595 105.781Z" fill="#263238" stroke="#263238" stroke-linecap="round" stroke-linejoin="round"/>
<path d="M29.7172 60.4523C29.7172 60.4523 30.2113 58.2734 30.1098 57.2326C30.0083 56.1917 28.8271 54.7716 29.5175 52.3073C30.208 49.8431 32.6955 47.0125 36.3372 47.0125C39.9789 47.0125 42.4665 51.0849 42.4665 51.0849C42.4665 51.0849 43.7458 54.4311 43.6138 55.1347C43.4818 55.8383 42.7474 56.6035 43.0148 57.1126C43.2821 57.6216 44.4125 58.455 44.2129 59.1586C44.1355 59.3796 44.0131 59.5837 43.8527 59.759C43.6924 59.9343 43.4973 60.0774 43.2787 60.1799C43.2737 60.9775 43.1599 61.7711 42.9403 62.5404C42.6019 63.5131 41.7422 64.8393 40.9401 64.7777C40.138 64.7161 37.8738 63.8049 37.8738 63.8049L35.8769 65.9774C35.8769 65.9774 31.3418 62.4107 30.076 62.0184L28.8102 61.6358L29.7172 60.4523Z" fill="#B8B8B8" stroke="#263238" stroke-linecap="round" stroke-linejoin="round"/>
<path d="M37.8807 63.8113L35.938 62.897L36.2392 65.4228L37.8807 63.8113Z" fill="#263238" stroke="#263238" stroke-linecap="round" stroke-linejoin="round"/>
<path d="M41.6136 56.853C41.6136 56.853 41.1465 57.6831 40.0804 57.1059" stroke="#263238" stroke-linecap="round" stroke-linejoin="round"/>
<path d="M42.2127 55.5755C42.2127 55.5755 41.1973 55.0016 39.6134 55.9581" stroke="#263238" stroke-linecap="round" stroke-linejoin="round"/>
<path d="M43.0792 61.8334C43.0792 61.8334 41.2144 61.895 40.6796 60.812" stroke="#263238" stroke-linecap="round" stroke-linejoin="round"/>
<path d="M43.279 60.1733C43.279 60.1733 42.2129 60.4262 41.9489 60.1085C41.6849 59.7907 42.2129 59.3433 42.2129 59.3433" stroke="#263238" stroke-linecap="round" stroke-linejoin="round"/>
<path d="M36.3373 47.0125C32.6821 47.0125 30.2114 49.8528 29.5176 52.3138C28.8238 54.7748 30.0118 56.2047 30.1099 57.239C30.1115 57.2465 30.1115 57.2543 30.1099 57.2617C30.6552 57.4465 31.2475 57.4612 31.8021 57.3039C32.8682 56.9213 33.2676 56.9797 33.2676 56.9797L34.6011 56.4057C34.6011 56.4057 34.7365 55.1931 35.6164 54.8072C36.4964 54.4214 36.2155 54.1069 36.0158 53.5946C35.8161 53.0823 35.481 52.5732 37.2816 51.3605C38.6354 50.4364 40.8691 50.2549 41.8506 50.2192C40.8996 49.0228 38.9129 47.0125 36.3373 47.0125Z" fill="#263238" stroke="#263238" stroke-linecap="round" stroke-linejoin="round"/>
<path d="M34.3507 56.9148C34.3507 56.9148 32.6821 55.193 31.8157 55.8318C30.9493 56.4706 31.3487 57.7448 31.8157 58.2571C32.2815 58.7217 32.8875 59.0346 33.5486 59.152C33.887 59.152 34.415 58.6397 34.415 58.6397" fill="#B8B8B8"/>
<path d="M34.3507 56.9148C34.3507 56.9148 32.6821 55.193 31.8157 55.8318C30.9493 56.4706 31.3487 57.7448 31.8157 58.2571C32.2815 58.7217 32.8875 59.0346 33.5486 59.152C33.887 59.152 34.415 58.6397 34.415 58.6397" stroke="#263238" stroke-linecap="round" stroke-linejoin="round"/>
<path d="M36.9497 66.6841L35.5485 68.153C35.5485 68.153 34.1473 65.7276 32.0151 64.7711C30.583 64.1527 29.0867 63.681 27.551 63.3639L29.3516 61.0034C30.9854 61.58 32.5492 62.3247 34.0153 63.2245C35.303 64.1012 36.3174 65.2972 36.9497 66.6841Z" fill="#D4AF37" stroke="#263238" stroke-linecap="round" stroke-linejoin="round"/>
<path d="M17.6076 97.5941C17.6076 97.5941 16.8698 105.7 18.0442 106.997C19.8042 108.917 25.7777 109.306 28.5665 108.943C31.3553 108.579 51.2424 108.093 51.2424 108.093C51.2424 108.093 50.7381 109.429 51.371 109.429C52.0039 109.429 53.1445 109.552 53.1445 109.552L53.0023 128.88L60.4481 126.286C60.4481 126.286 63.0576 102.617 63.0576 101.767C63.0576 100.918 62.2994 99.9449 61.7918 99.3386C61.2841 98.7322 37.3357 95.9373 37.3357 95.9373L36.5606 95.4347C36.5606 95.4347 23.5068 95.0261 17.6076 97.5941Z" fill="#D4AF37" stroke="#263238" stroke-linecap="round" stroke-linejoin="round"/>
<path d="M26.9014 100.675C26.3454 101.068 25.8408 101.524 25.3987 102.033" stroke="#263238" stroke-linecap="round" stroke-linejoin="round"/>
<path d="M35.6537 96.323C35.6537 96.323 31.0441 97.9896 27.8153 100.052" stroke="#263238" stroke-linecap="round" stroke-linejoin="round"/>
<path d="M24.1229 101.777C23.6401 102.263 23.2156 102.799 22.8571 103.375" stroke="#263238" stroke-linecap="round" stroke-linejoin="round"/>
<path d="M30.0453 97.0786C28.2151 98.2743 26.4829 99.6022 24.8637 101.051" stroke="#263238" stroke-linecap="round" stroke-linejoin="round"/>
<path d="M57.8861 104.835C58.3568 104.546 58.7829 104.196 59.1519 103.794" stroke="#263238" stroke-linecap="round" stroke-linejoin="round"/>
<path d="M51.9634 107.827C53.5911 107.14 55.1806 106.373 56.7253 105.528" stroke="#263238" stroke-linecap="round" stroke-linejoin="round"/>
<path d="M53.4899 105.95C54.6101 104.831 56.0587 103.194 56.3599 101.923" stroke="#263238" stroke-linecap="round" stroke-linejoin="round"/>
<path d="M52.1188 107.224C52.1188 107.224 52.4573 106.936 52.9446 106.475" stroke="#263238" stroke-linecap="round" stroke-linejoin="round"/>
<path d="M27.5513 63.3639C27.5513 63.3639 21.8857 66.5576 20.0209 70.2605C18.8683 72.6342 18.168 75.1861 17.953 77.7959C17.953 77.7959 16.6872 78.5611 17.0188 79.9035C17.2854 80.8561 17.6623 81.7773 18.1425 82.6498C18.1425 82.6498 16.9985 89.6891 17.3979 90.5191C17.6244 90.9366 17.7624 91.3928 17.804 91.8615C17.804 91.8615 16.2709 93.139 16.6026 93.8394C16.8007 94.2594 17.0958 94.6308 17.4656 94.9256C17.4656 94.9256 16.4503 95.4995 16.5992 95.947C16.8847 96.5285 17.2245 97.0842 17.6145 97.6071C17.6145 97.6071 23.6118 96.7154 27.2771 96.1383C30.9425 95.5611 36.5438 95.4379 36.5438 95.4379C36.5438 95.4379 38.0871 82.2672 38.4899 80.4125C38.8926 78.5579 38.1514 73.1333 37.2884 71.1554C36.8486 70.0871 36.2661 69.0778 35.5555 68.1529C35.5555 68.1529 32.7498 63.3023 27.5513 63.3639Z" fill="#263238" stroke="#263238" stroke-linecap="round" stroke-linejoin="round"/>
<path d="M36.1479 67.4396C36.1479 67.4396 37.7487 66.2885 37.8807 66.7911C38.0127 67.2937 37.6167 69.1516 37.0143 69.0251C36.4118 68.8987 36.1479 67.4396 36.1479 67.4396Z" fill="#263238" stroke="#263238" stroke-linecap="round" stroke-linejoin="round"/>
<path d="M52.7214 87.9284C52.7214 87.9284 53.246 88.6838 55.6117 89.1021C57.9774 89.5204 58.4986 90.947 59.0232 90.6131C59.5478 90.2791 58.4411 89.2318 57.7913 88.3142C57.5942 88.0451 57.3337 87.8244 57.0308 87.6701C56.7279 87.5157 56.3913 87.432 56.0483 87.4258L52.7214 87.9284Z" fill="#B8B8B8" stroke="#263238" stroke-linecap="round" stroke-linejoin="round"/>
<path d="M50.0003 84.4331C50.0003 84.4331 53.4728 84.1412 53.8992 84.1996C54.3256 84.258 59.69 85.7754 60.2383 86.0089C60.7866 86.2423 62.3096 87.1178 62.5533 87.8182C62.7969 88.5185 63.3452 90.9114 63.0406 90.9698C62.736 91.0282 62.2487 91.0865 62.005 90.7363C61.7613 90.3862 60.6038 88.5185 60.6038 88.5185L58.651 87.5425C58.651 87.5425 60.1165 88.8395 60.2383 89.1638C60.3601 89.488 61.5921 91.1481 60.9693 91.0898C60.3466 91.0314 59.3211 89.4685 59.3211 89.4685L57.3107 88.3596C57.3107 88.3596 54.7521 88.2429 53.5878 88.1262C52.4236 88.0095 50.1763 87.2507 50.1763 87.2507L50.0003 84.4331Z" fill="#B8B8B8" stroke="#263238" stroke-linecap="round" stroke-linejoin="round"/>
<path d="M59.0946 86.3008C59.0946 86.3008 61.8394 87.293 62.0221 87.5977C62.2049 87.9025 63.1187 90.4576 63.1187 90.4576" stroke="#263238" stroke-linecap="round" stroke-linejoin="round"/>
<path d="M44.3347 85.2729L50.0003 84.4202C50.3176 85.2687 50.4968 86.1588 50.5317 87.0595V88.337L46.4703 90.062L44.3347 85.2729Z" fill="#D4AF37" stroke="#263238" stroke-linecap="round" stroke-linejoin="round"/>
<path d="M27.3512 67.7638C27.3512 67.7638 24.0852 67.699 22.6841 71.4051C22.1699 72.7921 21.9754 74.2693 22.1139 75.7352C22.2523 77.2011 22.7205 78.6209 23.4862 79.897C24.4169 81.4306 27.0703 93.3887 27.6727 94.3452C28.2752 95.3017 46.0673 91.1514 46.5986 90.7785C47.13 90.4056 47.0014 88.6709 46.135 86.6931C45.2686 84.7152 42.6016 84.7768 42.6016 84.7768L34.7361 84.9681C34.8853 84.7158 34.9547 84.4274 34.9358 84.138C34.8959 83.9239 34.8732 83.7071 34.8681 83.4896C34.8681 83.4896 37.3489 83.7911 36.0154 77.7245C34.682 71.658 33.4839 69.4888 31.751 68.5323C30.0182 67.5758 28.4173 67.2612 27.3512 67.7638Z" fill="#D4AF37" stroke="#263238" stroke-linecap="round" stroke-linejoin="round"/>
<path d="M33.4741 83.6516C33.4741 83.6516 29.8663 85.5776 30.9324 85.4674C31.9985 85.3571 34.0089 84.3876 33.8295 84.6146" stroke="#263238" stroke-linecap="round" stroke-linejoin="round"/>
<path d="M23.8317 79.2875L24.0687 74.5276" stroke="#263238" stroke-linecap="round" stroke-linejoin="round"/>
<path d="M34.7261 83.0292C35.174 81.4792 35.255 79.853 34.9631 78.2693" stroke="#263238" stroke-linecap="round" stroke-linejoin="round"/>
<path d="M24.1903 136.639C24.0194 136.639 23.8555 136.575 23.7344 136.459C23.6132 136.344 23.5447 136.187 23.5438 136.023L23.2697 111.861H25.1074L24.8367 136.036C24.8323 136.198 24.7622 136.351 24.6415 136.464C24.5207 136.576 24.3588 136.639 24.1903 136.639Z" fill="#263238" stroke="#263238" stroke-linecap="round" stroke-linejoin="round"/>
<path d="M25.4393 136.639C25.2684 136.639 25.1045 136.575 24.9834 136.459C24.8622 136.344 24.7937 136.187 24.7929 136.023L24.5221 111.861H26.3599L26.0891 136.036C26.0838 136.198 26.013 136.351 25.8917 136.464C25.7704 136.577 25.6082 136.64 25.4393 136.639Z" fill="#263238" stroke="#263238" stroke-linecap="round" stroke-linejoin="round"/>
<path d="M12.3347 136.639C12.1635 136.639 11.9993 136.575 11.8776 136.459C11.7559 136.344 11.6867 136.187 11.6849 136.023L11.4175 111.861H13.2519L12.9845 136.036C12.9792 136.198 12.9085 136.351 12.7872 136.464C12.6659 136.577 12.5036 136.64 12.3347 136.639Z" fill="#263238" stroke="#263238" stroke-linecap="round" stroke-linejoin="round"/>
<path d="M37.8809 136.639C37.7097 136.639 37.5454 136.575 37.4238 136.459C37.3021 136.344 37.2328 136.187 37.2311 136.023L36.9603 111.861H38.7879L38.5205 136.036C38.5153 136.196 38.446 136.348 38.3268 136.461C38.2077 136.573 38.048 136.637 37.8809 136.639Z" fill="#263238" stroke="#263238" stroke-linecap="round" stroke-linejoin="round"/>
<path d="M12.917 108.596H37.1159C37.6841 108.596 38.229 108.812 38.6308 109.197C39.0326 109.582 39.2583 110.104 39.2583 110.648V112.594H10.7713V110.648C10.7713 110.378 10.8268 110.111 10.9347 109.862C11.0426 109.613 11.2007 109.386 11.4 109.196C11.5993 109.005 11.8358 108.854 12.0962 108.751C12.3565 108.648 12.6354 108.595 12.917 108.596Z" fill="#949494" stroke="#263238" stroke-linecap="round" stroke-linejoin="round"/>
<path d="M39.2549 111.128H10.7713V114.192H39.2549V111.128Z" fill="#263238" stroke="#263238" stroke-linecap="round" stroke-linejoin="round"/>
<path d="M27.7509 108.596H37.0954C37.6636 108.596 38.2085 108.812 38.6103 109.197C39.0121 109.582 39.2378 110.104 39.2378 110.648V112.594H25.6086V110.648C25.6086 110.104 25.8343 109.582 26.2361 109.197C26.6378 108.812 27.1828 108.596 27.7509 108.596Z" fill="#B8B8B8" stroke="#263238" stroke-linecap="round" stroke-linejoin="round"/>
<path d="M39.2412 111.128H25.6086V114.192H39.2412V111.128Z" fill="#263238" stroke="#263238" stroke-linecap="round" stroke-linejoin="round"/>
<path d="M128.578 136.552H164.467" stroke="#263238" stroke-linecap="round" stroke-linejoin="round"/>
<path d="M1.05792 136.552H125.711" stroke="#263238" stroke-linecap="round" stroke-linejoin="round"/>
</g>
</svg>
