<svg width="23" height="22" viewBox="0 0 23 22" fill="none" xmlns="http://www.w3.org/2000/svg">
<path fill-rule="evenodd" clip-rule="evenodd" d="M15.6006 16.6H9.00059H0.600586V6.60004C0.600586 3.28633 3.28688 0.600037 6.60059 0.600037C9.91429 0.600037 10.4036 3.89079 12.3754 5.67093C14.3473 7.45108 16.5552 7.00004 17.0006 7.00004C19.6516 7.00004 21.8006 9.14907 21.8006 11.8V16.6H15.6006Z" fill="black" stroke="black" stroke-width="0.75" stroke-linecap="round" stroke-linejoin="round"/>
<path d="M3.05323 3.87421C2.52171 4.50157 2.20117 5.31336 2.20117 6.20001" stroke="black" stroke-width="0.75" stroke-linecap="round" stroke-linejoin="round"/>
<path d="M21.4 16.2H1V21H21.4V16.2Z" fill="#EAEAEA" stroke="black" stroke-width="0.75" stroke-linecap="round" stroke-linejoin="round"/>
<path d="M9 16.6033V19.001" stroke="black" stroke-width="0.75" stroke-linecap="round" stroke-linejoin="round"/>
<path d="M12.6006 16.6033V19.001" stroke="black" stroke-width="0.75" stroke-linecap="round" stroke-linejoin="round"/>
<path d="M3.40039 16.6033V19.001" stroke="black" stroke-width="0.75" stroke-linecap="round" stroke-linejoin="round"/>
<path d="M10.2002 16.6033V19.001" stroke="black" stroke-width="0.75" stroke-linecap="round" stroke-linejoin="round"/>
<path d="M13.7998 16.6033V19.001" stroke="black" stroke-width="0.75" stroke-linecap="round" stroke-linejoin="round"/>
<path d="M16.5996 16.6033V19.001" stroke="black" stroke-width="0.75" stroke-linecap="round" stroke-linejoin="round"/>
<path d="M17.8008 16.6033V19.001" stroke="black" stroke-width="0.75" stroke-linecap="round" stroke-linejoin="round"/>
<path d="M4.59961 16.6033V19.001" stroke="black" stroke-width="0.75" stroke-linecap="round" stroke-linejoin="round"/>
<path d="M19 16.6033V19.001" stroke="black" stroke-width="0.75" stroke-linecap="round" stroke-linejoin="round"/>
<path d="M5.80078 16.6033V19.001" stroke="black" stroke-width="0.75" stroke-linecap="round" stroke-linejoin="round"/>
<path d="M2.20117 6.60004V9.80004" stroke="black" stroke-width="0.75" stroke-linecap="square" stroke-linejoin="round"/>
</svg>
