<svg width="32" height="32" viewBox="0 0 32 32" fill="none" xmlns="http://www.w3.org/2000/svg">
<path fill-rule="evenodd" clip-rule="evenodd" d="M16 30C8.268 30 2 23.73 2 16C2 8.27 8.268 2 16 2C23.732 2 30 8.27 30 16C30 23.73 23.732 30 16 30ZM16 0C7.163 0 0 7.16 0 16C0 24.84 7.163 32 16 32C24.837 32 32 24.84 32 16C32 7.16 24.837 0 16 0ZM21.717 10.28C21.323 9.89003 20.686 9.89003 20.292 10.28L15.994 14.58L11.758 10.34C11.367 9.94997 10.733 9.94997 10.344 10.34C9.95299 10.73 9.95299 11.37 10.344 11.76L14.58 15.99L10.314 20.26C9.92103 20.65 9.92103 21.2899 10.314 21.6899C10.708 22.0799 11.346 22.0799 11.74 21.6899L16.006 17.42L20.242 21.66C20.633 22.05 21.267 22.05 21.657 21.66C22.048 21.27 22.048 20.63 21.657 20.24L17.42 16.01L21.717 11.71C22.11 11.31 22.11 10.68 21.717 10.28Z" fill="#0A0A0B"/>
</svg>
