<?xml version="1.0" standalone="no"?>
<!DOCTYPE svg PUBLIC "-//W3C//DTD SVG 20010904//EN"
 "http://www.w3.org/TR/2001/REC-SVG-20010904/DTD/svg10.dtd">
<svg version="1.0" xmlns="http://www.w3.org/2000/svg"
 width="290.000000pt" height="290.000000pt" viewBox="0 0 290.000000 290.000000"
 preserveAspectRatio="xMidYMid meet">

<g transform="translate(0.000000,290.000000) scale(0.100000,-0.100000)"
fill="#000000" stroke="none">
<path d="M1750 2044 l0 -855 -22 7 c-90 29 -241 32 -333 9 -231 -60 -433 -249
-510 -478 l-30 -87 -427 0 c-421 0 -428 0 -428 -20 0 -20 7 -20 425 -20 l425
0 0 -72 c1 -229 120 -404 326 -480 49 -18 80 -21 179 -21 138 0 215 21 334 92
161 96 295 267 340 439 l12 42 429 0 c423 0 430 0 430 20 0 20 -7 20 -425 20
l-425 0 0 1130 0 1130 -150 0 -150 0 0 -856z m-72 -1160 c44 -34 72 -95 72
-161 0 -90 23 -83 -291 -83 -317 0 -302 -5 -246 83 111 173 343 253 465 161z
m26 -333 c-77 -142 -239 -241 -376 -228 -114 10 -178 84 -178 203 0 34 3 64 7
67 3 4 134 7 290 7 l284 0 -27 -49z"/>
</g>
</svg>
