<svg width="24" height="24" viewBox="0 0 24 24" fill="none" xmlns="http://www.w3.org/2000/svg">
<path d="M4.66006 14.49L5.66006 12.83C5.87006 12.46 6.06006 11.76 6.06006 11.35V8.82C6.06006 6.47 7.44006 4.44 9.43006 3.49C9.95006 2.57 10.9101 2 12.0101 2C13.1001 2 14.0801 2.59 14.6001 3.52C16.5501 4.49 17.9001 6.5 17.9001 8.82V11.35C17.9001 11.76 18.0901 12.46 18.3001 12.82L19.3101 14.49C19.7101 15.16 19.8001 15.9 19.5501 16.58C19.3101 17.25 18.7401 17.77 18.0001 18.02C16.0601 18.68 14.0201 19 11.9801 19C9.94006 19 7.90006 18.68 5.96006 18.03C5.26006 17.8 4.72006 17.27 4.46006 16.58C4.20006 15.89 4.27006 15.13 4.66006 14.49Z" fill="#FEFEFE"/>
<path d="M9.16982 20.01C9.58982 21.17 10.6998 22 11.9998 22C12.7898 22 13.5698 21.68 14.1198 21.11C14.4398 20.81 14.6798 20.41 14.8198 20C14.6898 20.02 14.5598 20.03 14.4198 20.05C14.1898 20.08 13.9498 20.11 13.7098 20.13C13.1398 20.18 12.5598 20.21 11.9798 20.21C11.4098 20.21 10.8398 20.18 10.2798 20.13C10.0698 20.11 9.85982 20.1 9.65982 20.07C9.49982 20.05 9.33982 20.03 9.16982 20.01Z" fill="#FEFEFE"/>
</svg>
