<svg width="20" height="24" viewBox="0 0 20 24" fill="none" xmlns="http://www.w3.org/2000/svg">
<path d="M13.9237 12.6777L14.6838 16.8758H9.72559L13.9237 12.6777Z" fill="#4D4D4D"/>
<path d="M18.4614 10.0165L16.9867 11.1467L16.2207 10.3806L15.4541 9.61403L16.5842 8.13934L17.5231 9.0782L18.4614 10.0165Z" fill="white"/>
<path d="M8.31555 4.63208H7.11719V16.8759H8.31555V4.63208Z" fill="white"/>
<path d="M9.51379 4.63208H8.31543V16.8759H9.51379V4.63208Z" fill="white"/>
<path d="M12.1129 2.68164L13.9235 12.6777L9.72534 16.8758H9.51408V4.63202H8.31567H7.11731V16.8758H1.94727L4.51794 2.68164H12.1129Z" fill="#4D4D4D"/>
<path d="M12.1125 2.68167H4.51758L8.3153 0.406311L12.1125 2.68167Z" fill="black"/>
<path d="M8.31612 16.8759H9.51453H9.72579H14.684L15.9008 23.5937H0.731445L1.94771 16.8759H7.11775H8.31612Z" fill="black"/>
<path d="M3.0327 18.5824C3.00674 18.5824 2.97969 18.5797 2.95363 18.5743C2.92766 18.5694 2.9022 18.5613 2.87783 18.5516C2.85289 18.5412 2.82955 18.5288 2.80742 18.5142C2.7852 18.499 2.76463 18.4822 2.74559 18.4633C2.72717 18.4449 2.70983 18.4237 2.6952 18.4015C2.68053 18.3798 2.66811 18.356 2.65784 18.3316C2.64763 18.3072 2.63998 18.2812 2.63455 18.2552C2.62967 18.2292 2.62695 18.2027 2.62695 18.1761C2.62695 18.0689 2.67031 17.9643 2.74555 17.889C2.76458 17.87 2.78511 17.8533 2.80738 17.8381C2.82955 17.8235 2.85289 17.811 2.87778 17.8008C2.90216 17.791 2.92761 17.7829 2.95358 17.778C3.00617 17.7672 3.05975 17.7672 3.11239 17.778C3.13836 17.7829 3.16381 17.791 3.18819 17.8008C3.21313 17.8111 3.23647 17.8235 3.2586 17.8381C3.28081 17.8533 3.30139 17.8701 3.32042 17.889C3.3957 17.9643 3.43902 18.0694 3.43902 18.1761C3.43902 18.2027 3.43686 18.2292 3.43142 18.2552C3.42599 18.2812 3.41844 18.3072 3.40813 18.3316C3.39781 18.356 3.38539 18.3798 3.37077 18.4015C3.35614 18.4237 3.3388 18.4449 3.32038 18.4633C3.30135 18.4823 3.28081 18.4991 3.25855 18.5142C3.23638 18.5288 3.21303 18.5413 3.18814 18.5516C3.16377 18.5613 3.13831 18.5694 3.11234 18.5743C3.08642 18.5797 3.05933 18.5824 3.0327 18.5824Z" fill="white"/>
<path d="M2.28867 22.6998C2.26467 22.6998 2.24025 22.6977 2.21583 22.6932C1.995 22.6532 1.84842 22.4418 1.88841 22.221L2.40966 19.3421C2.44964 19.1212 2.66138 18.9746 2.88188 19.0146C3.10271 19.0546 3.24929 19.266 3.2093 19.4869L2.68805 22.3658C2.65247 22.5622 2.48138 22.6998 2.28867 22.6998Z" fill="white"/>
<path d="M8.15817 2.07327C8.13164 2.07327 8.10506 2.07055 8.07853 2.06516C8.05303 2.06029 8.02706 2.05218 8.00269 2.04243C7.97831 2.03212 7.95445 2.01969 7.9328 2.00507C7.91006 1.98988 7.88944 1.9731 7.87102 1.95416C7.85198 1.93574 7.83525 1.9146 7.82011 1.89238C7.80548 1.87073 7.79302 1.84687 7.78275 1.82249C7.773 1.79812 7.76494 1.7721 7.76002 1.74665C7.75458 1.72012 7.75195 1.69354 7.75195 1.66701C7.75195 1.55976 7.79531 1.45518 7.87116 1.37985C7.88958 1.36086 7.91016 1.34408 7.93294 1.32894C7.95459 1.31432 7.97845 1.30185 8.00283 1.2921C8.0272 1.28179 8.05322 1.27368 8.07867 1.2688C8.13122 1.25797 8.18541 1.25797 8.23791 1.2688C8.26336 1.27368 8.28938 1.28179 8.31375 1.2921C8.33808 1.30185 8.36199 1.31432 8.38364 1.32894C8.40581 1.34413 8.427 1.36091 8.44542 1.37985C8.52127 1.45518 8.56463 1.55971 8.56463 1.66701C8.56463 1.69354 8.56191 1.72012 8.55652 1.74665C8.55164 1.7721 8.54353 1.79812 8.53378 1.82249C8.52356 1.84687 8.51105 1.87073 8.49586 1.89238C8.48124 1.9146 8.46445 1.93574 8.44547 1.95416C8.37 2.02996 8.26491 2.07327 8.15817 2.07327Z" fill="white"/>
<path d="M16.6095 9.82048C16.583 9.82048 16.5564 9.81776 16.5298 9.81237C16.5043 9.80749 16.4784 9.79939 16.454 9.78964C16.4296 9.77932 16.4058 9.7669 16.3841 9.75228C16.3619 9.73709 16.3408 9.72031 16.3223 9.70137C16.2465 9.62604 16.2031 9.52095 16.2031 9.41421C16.2031 9.30696 16.2465 9.20238 16.3223 9.12706C16.3408 9.10807 16.3618 9.09129 16.3841 9.07615C16.4058 9.06152 16.4296 9.04906 16.454 9.03879C16.4784 9.02904 16.5044 9.02093 16.5298 9.01606C16.5824 9.00523 16.6366 9.00523 16.6886 9.01606C16.7145 9.02093 16.7406 9.02904 16.765 9.03879C16.7893 9.0491 16.8132 9.06152 16.8349 9.07615C16.857 9.09134 16.8782 9.10812 16.8966 9.12706C16.9725 9.20234 17.0158 9.30692 17.0158 9.41421C17.0158 9.52095 16.9725 9.62604 16.8966 9.70137C16.8782 9.72035 16.8571 9.73714 16.8349 9.75228C16.8132 9.7669 16.7893 9.77937 16.765 9.78964C16.7406 9.79939 16.7145 9.80749 16.6886 9.81237C16.6625 9.81781 16.636 9.82048 16.6095 9.82048Z" fill="white"/>
<path d="M19.5558 7.04492C19.3971 6.88624 19.1399 6.88624 18.9812 7.04492L17.5224 8.50362L16.871 7.8522C16.7882 7.76942 16.6741 7.72657 16.5569 7.73403C16.4402 7.74171 16.3323 7.79942 16.2611 7.89232L15.1311 9.36697C15.0071 9.52873 15.0221 9.7573 15.1662 9.90144L15.6454 10.3806L14.1844 11.8416L12.5125 2.60931C12.491 2.49058 12.4191 2.39195 12.3214 2.33336L8.52398 0.0577618C8.3954 -0.0192539 8.2349 -0.0192539 8.10632 0.0577618L4.30888 2.33331C4.21119 2.39195 4.13928 2.49058 4.11782 2.60927L0.330731 23.5213C0.309262 23.6398 0.341465 23.7617 0.418668 23.8541C0.495918 23.9466 0.610106 24 0.730575 24H15.8999C16.0203 24 16.1346 23.9465 16.2118 23.8541C16.289 23.7617 16.3213 23.6398 16.2998 23.5213L14.3607 12.8147L16.2201 10.9552L16.6989 11.434C16.7777 11.5128 16.8817 11.553 16.9863 11.553C17.073 11.553 17.1601 11.5254 17.2334 11.4692L18.708 10.3391C18.8009 10.2679 18.8586 10.16 18.8663 10.0433C18.874 9.92652 18.8309 9.81209 18.7481 9.72931L18.097 9.07822L19.5558 7.61946C19.7145 7.46079 19.7145 7.20354 19.5558 7.04492ZM8.31515 0.879998L10.644 2.27542H5.9863L8.31515 0.879998ZM4.85699 3.08805H11.7733L13.4852 12.5408L9.91987 16.1062V4.63207C9.91987 4.40768 9.738 4.22575 9.51356 4.22575H7.11679C6.89235 4.22575 6.71048 4.40768 6.71048 4.63207V16.4695H2.43359L4.85699 3.08805ZM7.5231 16.4695V5.03838H7.90884V16.4695H7.5231ZM8.72147 5.03838H9.1072V16.4695H8.72147V5.03838ZM1.21704 23.1874L2.2865 17.2822H14.3439L15.4134 23.1874H1.21704ZM14.1967 16.4695H10.7057L13.6614 13.5138L14.1967 16.4695ZM17.0217 10.6076L15.9927 9.57856L16.6242 8.75459L17.8457 9.97606L17.0217 10.6076Z" fill="black"/>
</svg>
