<?xml version="1.0" standalone="no"?>
<!DOCTYPE svg PUBLIC "-//W3C//DTD SVG 20010904//EN"
 "http://www.w3.org/TR/2001/REC-SVG-20010904/DTD/svg10.dtd">
<svg version="1.0" xmlns="http://www.w3.org/2000/svg"
 width="290.000000pt" height="290.000000pt" viewBox="0 0 290.000000 290.000000"
 preserveAspectRatio="xMidYMid meet">

<g transform="translate(0.000000,290.000000) scale(0.100000,-0.100000)"
fill="#000000" stroke="none">
<path d="M1930 2020 c0 -484 -2 -880 -4 -880 -2 0 -23 7 -47 16 -248 89 -615
42 -868 -111 -142 -86 -288 -241 -321 -341 l-12 -34 -339 0 -339 0 0 -45 0
-45 323 0 324 0 1 -79 c3 -223 166 -399 437 -473 116 -31 353 -31 477 0 236
58 418 165 551 321 41 48 102 156 121 214 5 16 30 17 336 17 l330 0 0 45 0 45
-326 0 -325 0 1 263 c1 144 1 646 1 1115 l-1 852 -160 0 -160 0 0 -880z"/>
</g>
</svg>
