<?xml version="1.0" encoding="UTF-8"?>
<svg xmlns="http://www.w3.org/2000/svg" xmlns:xlink="http://www.w3.org/1999/xlink" width="2000px" height="2000px" viewBox="0 0 2000 2000" version="1.1">
<g id="surface1">
<path style=" stroke:none;fill-rule:nonzero;fill:rgb(0%,0%,0%);fill-opacity:1;" d="M 840.21875 74.378906 L 824.378906 86.777344 L 870.523438 148.761719 C 895.316406 182.507812 933.882812 245.867188 955.921875 289.257812 C 992.425781 362.949219 995.179688 371.902344 997.246094 424.242188 C 999.3125 462.808594 996.554688 493.113281 988.292969 521.351562 C 964.1875 605.371094 899.449219 704.546875 807.164062 798.210938 C 779.613281 826.445312 758.265625 852.617188 760.332031 856.75 C 761.707031 860.882812 822.3125 935.261719 895.316406 1022.726562 C 1013.773438 1164.601562 1115.703125 1294.078125 1115.703125 1303.03125 C 1115.703125 1304.40625 1095.042969 1298.898438 1069.558594 1290.632812 C 975.207031 1258.265625 900.136719 1272.039062 832.644531 1334.023438 C 767.21875 1394.628906 729.339844 1495.867188 740.359375 1579.890625 C 752.066406 1672.863281 869.144531 1816.804688 1003.445312 1904.957031 C 1087.464844 1960.054688 1126.722656 1952.480469 1070.246094 1892.5625 C 1027.546875 1847.109375 995.867188 1801.652344 972.453125 1750.6875 C 957.988281 1719.007812 954.546875 1701.101562 953.855469 1656.335938 C 953.855469 1608.816406 956.613281 1597.109375 972.453125 1569.558594 C 993.800781 1533.746094 1029.613281 1507.574219 1080.578125 1490.359375 C 1132.921875 1473.828125 1246.554688 1479.339844 1315.425781 1503.445312 C 1343.664062 1513.085938 1367.769531 1519.972656 1368.457031 1519.972656 C 1371.210938 1516.527344 1315.425781 1440.769531 1241.734375 1347.109375 C 1094.351562 1161.15625 1069.558594 1115.703125 1075.757812 1037.191406 C 1081.957031 965.566406 1128.097656 878.097656 1236.914062 732.09375 C 1268.59375 690.082031 1294.765625 653.582031 1294.765625 651.515625 C 1294.765625 648.761719 955.234375 180.441406 893.25 97.796875 C 878.097656 78.511719 863.636719 61.984375 860.882812 61.984375 C 858.125 61.984375 848.484375 67.492188 840.21875 74.378906 Z M 840.21875 74.378906 "/>
</g>
</svg>
