<svg width="17" height="16" viewBox="0 0 17 16" fill="none" xmlns="http://www.w3.org/2000/svg">
<path d="M6.60203 3.60557C7.44645 2.09073 7.86865 1.33331 8.49992 1.33331C9.13119 1.33331 9.55339 2.09073 10.3978 3.60556L10.6163 3.99747C10.8563 4.42793 10.9762 4.64317 11.1633 4.78519C11.3504 4.9272 11.5833 4.97991 12.0493 5.08535L12.4736 5.18133C14.1133 5.55235 14.9333 5.73786 15.1283 6.36513C15.3234 6.99238 14.7645 7.64605 13.6465 8.95325L13.3573 9.29145C13.0397 9.66291 12.8808 9.84865 12.8093 10.0784C12.7379 10.3082 12.7619 10.556 12.8099 11.0517L12.8537 11.5029C13.0227 13.247 13.1072 14.1191 12.5965 14.5068C12.0858 14.8944 11.3181 14.541 9.78279 13.8341L9.38559 13.6512C8.94932 13.4503 8.73119 13.3498 8.49992 13.3498C8.26865 13.3498 8.05052 13.4503 7.61425 13.6512L7.21705 13.8341C5.68171 14.541 4.91404 14.8944 4.40335 14.5068C3.89267 14.1191 3.97717 13.247 4.14619 11.5029L4.18991 11.0517C4.23794 10.556 4.26195 10.3082 4.19049 10.0784C4.11904 9.84865 3.96021 9.66291 3.64253 9.29145L3.35332 8.95325C2.23542 7.64605 1.67647 6.99238 1.87153 6.36513C2.0666 5.73786 2.88649 5.55235 4.52628 5.18133L4.95051 5.08535C5.41649 4.97991 5.64947 4.9272 5.83655 4.78519C6.02362 4.64317 6.14361 4.42794 6.38357 3.99747L6.60203 3.60557Z" stroke="#535356" stroke-width="2"/>
</svg>
