<svg width="20" height="24" viewBox="0 0 20 24" fill="none" xmlns="http://www.w3.org/2000/svg">
<path d="M19.5558 7.04492C19.3971 6.88624 19.1399 6.88624 18.9812 7.04492L17.5224 8.50362L16.871 7.8522C16.7882 7.76942 16.6741 7.72657 16.5569 7.73403C16.4402 7.74171 16.3323 7.79942 16.2611 7.89232L15.1311 9.36697C15.0071 9.52873 15.0221 9.7573 15.1662 9.90144L15.6454 10.3806L14.1844 11.8416L12.5125 2.60931C12.491 2.49058 12.4191 2.39195 12.3214 2.33336L8.52398 0.0577618C8.3954 -0.0192539 8.2349 -0.0192539 8.10632 0.0577618L4.30888 2.33331C4.21119 2.39195 4.13928 2.49058 4.11782 2.60927L0.330731 23.5213C0.309262 23.6398 0.341465 23.7617 0.418668 23.8541C0.495918 23.9466 0.610106 24 0.730575 24H15.8999C16.0203 24 16.1346 23.9465 16.2118 23.8541C16.289 23.7617 16.3213 23.6398 16.2998 23.5213L14.3607 12.8147L16.2201 10.9552L16.6989 11.434C16.7777 11.5128 16.8817 11.553 16.9863 11.553C17.073 11.553 17.1601 11.5254 17.2334 11.4692L18.708 10.3391C18.8009 10.2679 18.8586 10.16 18.8663 10.0433C18.874 9.92652 18.8309 9.81209 18.7481 9.72931L18.097 9.07822L19.5558 7.61946C19.7145 7.46079 19.7145 7.20354 19.5558 7.04492ZM8.31515 0.879998L10.644 2.27542H5.9863L8.31515 0.879998ZM4.85699 3.08805H11.7733L13.4852 12.5408L9.91987 16.1062V4.63207C9.91987 4.40768 9.738 4.22575 9.51356 4.22575H7.11679C6.89235 4.22575 6.71048 4.40768 6.71048 4.63207V16.4695H2.43359L4.85699 3.08805ZM7.5231 16.4695V5.03838H7.90884V16.4695H7.5231ZM8.72147 5.03838H9.1072V16.4695H8.72147V5.03838ZM1.21704 23.1874L2.2865 17.2822H14.3439L15.4134 23.1874H1.21704ZM14.1967 16.4695H10.7057L13.6614 13.5138L14.1967 16.4695ZM17.0217 10.6076L15.9927 9.57856L16.6242 8.75459L17.8457 9.97606L17.0217 10.6076Z" fill="black"/>
</svg>
