<svg width="16" height="20" viewBox="0 0 16 20" fill="none" xmlns="http://www.w3.org/2000/svg">
<path d="M8.5 6.89001V16.5M8.5 6.89001V3.57656C8.5 3.36922 8.5 3.26554 8.5347 3.17733C8.5653 3.09943 8.615 3.03047 8.6792 2.97678C8.752 2.91597 8.8503 2.88318 9.047 2.81761L13.447 1.35095C13.8025 1.23245 13.9803 1.17319 14.1218 1.20872C14.2456 1.23982 14.3529 1.31713 14.4216 1.42479C14.5 1.54779 14.5 1.73516 14.5 2.10989V5.42335C14.5 5.63069 14.5 5.73436 14.4653 5.82258C14.4347 5.90048 14.385 5.96943 14.3208 6.02313C14.248 6.08394 14.1497 6.11672 13.953 6.18229L9.553 7.64896C9.1975 7.76746 9.0197 7.82671 8.8782 7.79119C8.7544 7.76009 8.6471 7.68278 8.5784 7.57512C8.5 7.45212 8.5 7.26475 8.5 6.89001ZM8.5 16.5C8.5 17.8807 6.933 19 5 19C3.067 19 1.5 17.8807 1.5 16.5C1.5 15.1192 3.067 14 5 14C6.933 14 8.5 15.1192 8.5 16.5Z" stroke="black" stroke-width="1.5" stroke-linecap="round" stroke-linejoin="round"/>
</svg>
