<svg width="24" height="24" viewBox="0 0 24 24" fill="none" xmlns="http://www.w3.org/2000/svg">
<path d="M12 0.960022C9.88684 0.960022 7.91809 1.56002 6.23996 2.5894V2.40002C6.23996 1.6069 5.59309 0.960022 4.79996 0.960022C4.00684 0.960022 3.35996 1.6069 3.35996 2.40002V5.2969L2.87996 5.77877C1.66871 7.55065 0.959961 9.6919 0.959961 12C0.959961 18.0975 5.90246 23.04 12 23.04C18.0975 23.04 23.04 18.0975 23.04 12C23.04 5.90252 18.0975 0.960022 12 0.960022ZM4.31996 11.52C4.58434 11.52 4.79996 11.7356 4.79996 12C4.79996 12.2663 4.58434 12.48 4.31996 12.48C4.05559 12.48 3.83996 12.2663 3.83996 12C3.83996 11.7356 4.05559 11.52 4.31996 11.52ZM12 22.08C6.44246 22.08 1.91996 17.5575 1.91996 12C1.91996 10.395 2.30621 8.79752 3.03934 7.38002L3.89246 7.82065C3.22121 9.12002 2.87996 10.5263 2.87996 12C2.87996 17.0288 6.97121 21.12 12 21.12C17.0287 21.12 21.12 17.0288 21.12 12C21.12 6.97127 17.0287 2.88002 12 2.88002C9.70496 2.88002 7.52246 3.74815 5.84996 5.28002H8.15996C8.42434 5.28002 8.63996 5.49565 8.63996 5.76002C8.63996 6.0244 8.42434 6.24002 8.15996 6.24002H4.31996V2.40002C4.31996 2.13565 4.53559 1.92002 4.79996 1.92002C5.06434 1.92002 5.27996 2.13565 5.27996 2.40002V4.50565C7.11934 2.85565 9.49871 1.92002 12 1.92002C17.5575 1.92002 22.08 6.44252 22.08 12C22.08 17.5575 17.5575 22.08 12 22.08ZM5.09434 15.3938C5.32496 15.2625 5.61746 15.3431 5.74871 15.5719C5.87996 15.8025 5.80121 16.095 5.57059 16.2263C5.33996 16.3575 5.04746 16.2788 4.91434 16.0481C4.78309 15.8175 4.86371 15.525 5.09434 15.3938ZM7.70809 18.3863C7.84309 18.1575 8.13559 18.0806 8.36434 18.2156C8.59309 18.3488 8.66996 18.6431 8.53684 18.8719C8.40371 19.1006 8.10933 19.1775 7.88059 19.0444C7.65183 18.9094 7.57496 18.615 7.70809 18.3863ZM12.0393 8.28002H13.0856V15.0431H12.0356V9.40877H11.955L10.2581 10.6088V9.53627L12.0393 8.28002ZM11.52 4.32002C11.52 4.05565 11.7356 3.84002 12 3.84002C12.2662 3.84002 12.48 4.05565 12.48 4.32002C12.48 4.5844 12.2662 4.80002 12 4.80002C11.7356 4.80002 11.52 4.5844 11.52 4.32002ZM12.48 19.68C12.48 19.9463 12.2662 20.16 12 20.16C11.7356 20.16 11.52 19.9463 11.52 19.68C11.52 19.4138 11.7356 19.2 12 19.2C12.2662 19.2 12.48 19.4138 12.48 19.68ZM15.5493 18.2644C15.78 18.1331 16.0743 18.2138 16.2037 18.4444C16.335 18.675 16.2543 18.9694 16.0237 19.0988C15.7931 19.23 15.4987 19.1494 15.3693 18.9188C15.2381 18.6881 15.3187 18.3938 15.5493 18.2644ZM15.4631 5.12815C15.5962 4.8994 15.8906 4.82252 16.1193 4.95565C16.35 5.09065 16.425 5.38502 16.2918 5.61377C16.1568 5.84252 15.8643 5.9194 15.6356 5.7844C15.4068 5.65127 15.33 5.3569 15.4631 5.12815ZM18.2156 15.6356C18.3487 15.4069 18.6431 15.33 18.8718 15.4631C19.1006 15.5963 19.1775 15.8906 19.0425 16.1194C18.9093 16.35 18.615 16.425 18.3862 16.2919C18.1575 16.1569 18.0806 15.8644 18.2156 15.6356ZM18.4293 7.7719C18.66 7.64065 18.9543 7.72127 19.0856 7.9519C19.2168 8.18252 19.1362 8.47502 18.9056 8.60627C18.6768 8.73752 18.3825 8.6569 18.2512 8.42815C18.12 8.19752 18.1987 7.90502 18.4293 7.7719ZM19.2 12C19.2 11.7356 19.4137 11.52 19.68 11.52C19.9462 11.52 20.16 11.7356 20.16 12C20.16 12.2663 19.9462 12.48 19.68 12.48C19.4137 12.48 19.2 12.2663 19.2 12Z" fill="black"/>
</svg>
