<svg width="24" height="18" viewBox="0 0 24 18" fill="none" xmlns="http://www.w3.org/2000/svg">
<path d="M12.5277 1.32C11.3469 0.878401 8.84124 2.27991 6.76764 4.11351H5.2316C4.21317 4.11351 3.23644 4.51814 2.51631 5.23828C1.79617 5.95842 1.3916 6.93509 1.3916 7.95355V9.87355C1.3916 10.8919 1.79617 11.8687 2.51631 12.5889C3.23644 13.309 4.21317 13.7136 5.2316 13.7136H6.76764C8.79324 15.576 11.2989 16.9488 12.5277 16.5168C14.5437 15.768 14.8796 11.7168 14.8796 8.91355C14.8796 6.11031 14.5437 2.0688 12.5277 1.32Z" stroke="black" stroke-width="1.5" stroke-linecap="round" stroke-linejoin="round"/>
<path d="M20.3145 3.45117C21.7536 4.89131 22.5621 6.84403 22.5621 8.88C22.5621 10.916 21.7536 12.8687 20.3145 14.3088" stroke="black" stroke-width="1.5" stroke-linecap="round" stroke-linejoin="round"/>
<path d="M18.2773 12.312C19.1772 11.4118 19.6827 10.1911 19.6827 8.91828C19.6827 7.64552 19.1772 6.42491 18.2773 5.52478" stroke="black" stroke-width="1.5" stroke-linecap="round" stroke-linejoin="round"/>
</svg>
