<?xml version="1.0" encoding="UTF-8"?>
<svg xmlns="http://www.w3.org/2000/svg" xmlns:xlink="http://www.w3.org/1999/xlink" width="740px" height="740px" viewBox="0 0 740 740" version="1.1">
<g id="surface1">
<path style=" stroke:none;fill-rule:nonzero;fill:rgb(0%,0%,0%);fill-opacity:1;" d="M 298.960938 257.519531 C 222.59375 268.175781 160.136719 307.101562 145.484375 353.277344 L 142.96875 361.121094 L 0 361.121094 L 0 378.878906 L 70.300781 378.878906 C 108.929688 378.878906 140.601562 379.324219 140.601562 379.914062 C 140.601562 384.652344 144.152344 402.117188 146.667969 409.960938 C 166.796875 472.710938 240.796875 511.933594 349.28125 517.261719 C 429.644531 521.109375 509.414062 489.878906 541.53125 441.632812 C 552.335938 425.648438 555.738281 414.253906 555.738281 394.714844 L 555.738281 378.878906 L 740 378.878906 L 740 361.121094 L 550.855469 361.121094 L 545.085938 348.835938 C 523.03125 303.253906 473.304688 273.800781 395.011719 260.332031 C 374.441406 256.78125 316.570312 255.152344 298.960938 257.519531 Z M 355.941406 284.898438 C 372.070312 289.191406 380.0625 293.78125 392.941406 306.804688 C 403.597656 317.460938 406.113281 321.160156 413.363281 335.960938 C 417.953125 345.285156 422.097656 354.757812 422.6875 356.976562 L 423.574219 361.121094 L 263.441406 361.121094 L 263.441406 355.496094 C 263.441406 337.589844 270.839844 319.234375 283.714844 304.878906 C 297.628906 289.488281 312.871094 282.828125 334.480469 282.828125 C 341.4375 282.679688 351.203125 283.714844 355.941406 284.898438 Z M 431.125 389.980469 C 434.675781 403.890625 436.007812 428.460938 433.789062 437.339844 C 426.832031 465.015625 403.449219 487.957031 376.066406 494.320312 C 359.789062 498.167969 334.480469 493.875 318.941406 484.847656 C 309.765625 479.371094 294.519531 462.351562 288.453125 450.660156 C 279.867188 434.378906 271.136719 406.703125 267.289062 384.355469 L 266.253906 378.878906 L 347.355469 379.175781 L 428.460938 379.621094 Z M 431.125 389.980469 "/>
</g>
</svg>
