<svg width="24" height="24" viewBox="0 0 24 24" fill="none" xmlns="http://www.w3.org/2000/svg">
<mask id="mask0_72_4623" style="mask-type:alpha" maskUnits="userSpaceOnUse" x="0" y="0" width="24" height="24">
<rect width="24" height="24" fill="#D9D9D9"/>
</mask>
<g mask="url(#mask0_72_4623)">
<path d="M9.5 17.1945V7.8032L16.5 12.4989L9.5 17.1945ZM12 23.9771C10.2 23.9771 8.5125 23.5467 6.9375 22.6858C5.3625 21.825 4.05 20.6206 3 19.0728V21.8902H1V15.6293H7V17.7163H4.55C5.4 19.0206 6.47917 20.0424 7.7875 20.7815C9.09583 21.5206 10.5 21.8902 12 21.8902C13.9167 21.8902 15.6542 21.3163 17.2125 20.1684C18.7708 19.0206 19.8667 17.4989 20.5 15.6032L22.45 16.0728C21.7 18.438 20.3667 20.3467 18.45 21.7989C16.5333 23.2511 14.3833 23.9771 12 23.9771ZM1.05 11.4554C1.16667 10.2902 1.43333 9.17277 1.85 8.1032C2.26667 7.03363 2.84167 6.04668 3.575 5.14233L5 6.62929C4.46667 7.34233 4.03333 8.1032 3.7 8.9119C3.36667 9.7206 3.15833 10.5684 3.075 11.4554H1.05ZM6.4 5.16841L4.975 3.68145C5.85833 2.91624 6.80833 2.31189 7.825 1.86841C8.84167 1.42493 9.9 1.15971 11 1.07275V3.15971C10.15 3.24667 9.34167 3.46406 8.575 3.81189C7.80833 4.15972 7.08333 4.61189 6.4 5.16841ZM17.625 5.16841C16.9417 4.61189 16.2125 4.15972 15.4375 3.81189C14.6625 3.46406 13.85 3.24667 13 3.15971V1.07275C14.1167 1.1771 15.1875 1.44667 16.2125 1.88145C17.2375 2.31623 18.1833 2.91624 19.05 3.68145L17.625 5.16841ZM20.95 11.4554C20.8667 10.5684 20.6583 9.7206 20.325 8.9119C19.9917 8.1032 19.5583 7.34233 19.025 6.62929L20.45 5.14233C21.1833 6.04668 21.7583 7.03363 22.175 8.1032C22.5917 9.17277 22.85 10.2902 22.95 11.4554H20.95Z" fill="white"/>
</g>
</svg>
