<svg width="24" height="24" viewBox="0 0 24 24" fill="none" xmlns="http://www.w3.org/2000/svg">
<path d="M23.9999 12C23.9999 5.37258 18.6274 0 12 0V3.6C16.6392 3.6 20.3999 7.3608 20.3999 12H23.9999Z" fill="black" fill-opacity="0.603922"/>
<path d="M23.9997 12H20.3997C20.3997 14.3196 19.4595 16.4196 17.9395 17.9397L20.485 20.4853C22.6565 18.3137 23.9997 15.3137 23.9997 12Z" fill="black" fill-opacity="0.301961"/>
<path d="M17.9395 17.9397L20.4851 20.4853C18.3136 22.6568 15.3135 24 11.9999 24C5.37253 24 0 18.6274 0 12C0 5.37258 5.37253 0 11.9999 0V3.6C7.36073 3.6 3.59996 7.3608 3.59996 12C3.59996 16.6392 7.36073 20.4 11.9999 20.4C14.3195 20.4 16.4194 19.4598 17.9395 17.9397ZM12.5519 16.9072V18.39H11.5439V16.95C10.5644 16.9455 9.6524 16.7303 8.80791 16.3043V14.358C9.08841 14.595 9.50576 14.8148 10.06 15.0173C10.6143 15.2198 11.1089 15.336 11.5439 15.366V12.7088C10.4339 12.3023 9.6764 11.8613 9.27141 11.3858C8.86641 10.9103 8.66391 10.3313 8.66391 9.64878C8.66391 8.91378 8.92713 8.28786 9.45362 7.77114C9.98012 7.25436 10.6769 6.954 11.5439 6.87V5.574H12.5519V6.84078C13.5164 6.88728 14.2364 7.044 14.7119 7.311V9.174C14.0714 8.781 13.3514 8.541 12.5519 8.454V11.1968C13.5794 11.5643 14.3162 11.9846 14.7625 12.4579C15.2087 12.9311 15.4318 13.503 15.4318 14.1735C15.4318 14.9475 15.1832 15.5711 14.686 16.0444C14.1887 16.5176 13.4774 16.8053 12.5519 16.9072ZM11.5439 10.7828V8.48328C10.8719 8.60478 10.5359 8.955 10.5359 9.534C10.5359 10.0335 10.8719 10.4498 11.5439 10.7828ZM12.5519 13.1115V15.339C13.2239 15.231 13.5599 14.8808 13.5599 14.2883C13.5599 13.8083 13.2239 13.416 12.5519 13.1115Z" fill="#0A0A0B"/>
</svg>
