<svg width="192" height="71" viewBox="0 0 192 71" fill="none" xmlns="http://www.w3.org/2000/svg">
<path d="M11 43.5V19.5H15V43.5H11ZM37 43.5L19 31.5L37 19.5V43.5Z" fill="white"/>
<g filter="url(#filter0_dd_72_4692)">
<path d="M72 31.5C72 18.2452 82.7452 7.5 96 7.5C109.255 7.5 120 18.2452 120 31.5C120 44.7548 109.255 55.5 96 55.5C82.7452 55.5 72 44.7548 72 31.5Z" fill="white"/>
<path d="M91 40.25V22.75L104.75 31.5L91 40.25Z" fill="#1C1C1C"/>
</g>
<path d="M177 43.5V19.5H181V43.5H177ZM155 43.5V19.5L173 31.5L155 43.5Z" fill="white"/>
<defs>
<filter id="filter0_dd_72_4692" x="61" y="0.5" width="70" height="70" filterUnits="userSpaceOnUse" color-interpolation-filters="sRGB">
<feFlood flood-opacity="0" result="BackgroundImageFix"/>
<feColorMatrix in="SourceAlpha" type="matrix" values="0 0 0 0 0 0 0 0 0 0 0 0 0 0 0 0 0 0 127 0" result="hardAlpha"/>
<feOffset dy="1"/>
<feGaussianBlur stdDeviation="1.5"/>
<feColorMatrix type="matrix" values="0 0 0 0 0 0 0 0 0 0 0 0 0 0 0 0 0 0 0.3 0"/>
<feBlend mode="normal" in2="BackgroundImageFix" result="effect1_dropShadow_72_4692"/>
<feColorMatrix in="SourceAlpha" type="matrix" values="0 0 0 0 0 0 0 0 0 0 0 0 0 0 0 0 0 0 127 0" result="hardAlpha"/>
<feMorphology radius="3" operator="dilate" in="SourceAlpha" result="effect2_dropShadow_72_4692"/>
<feOffset dy="4"/>
<feGaussianBlur stdDeviation="4"/>
<feColorMatrix type="matrix" values="0 0 0 0 0 0 0 0 0 0 0 0 0 0 0 0 0 0 0.15 0"/>
<feBlend mode="normal" in2="effect1_dropShadow_72_4692" result="effect2_dropShadow_72_4692"/>
<feBlend mode="normal" in="SourceGraphic" in2="effect2_dropShadow_72_4692" result="shape"/>
</filter>
</defs>
</svg>
