<svg width="32" height="32" viewBox="0 0 32 32" fill="none" xmlns="http://www.w3.org/2000/svg">
<path d="M16 10.6667V16.0001L19.3333 19.3334" stroke="#EEE8EC" stroke-width="4" stroke-linecap="round" stroke-linejoin="round"/>
<path d="M5.7838 9.16081L4.78381 9.16584C4.78656 9.71419 5.23041 10.158 5.77877 10.1608L5.7838 9.16081ZM9.17284 10.1779C9.72512 10.1806 10.1751 9.73517 10.1779 9.18289C10.1806 8.63061 9.73517 8.18065 9.18289 8.17788L9.17284 10.1779ZM6.76673 5.76172C6.76395 5.20944 6.314 4.76397 5.76172 4.76675C5.20944 4.76953 4.76397 5.21949 4.76676 5.77176L6.76673 5.76172ZM5 16C5 15.4477 4.55228 15 4 15C3.44772 15 3 15.4477 3 16H5ZM22.5007 27.2603C22.9788 26.9837 23.1421 26.372 22.8656 25.8939C22.5891 25.4159 21.9773 25.2524 21.4993 25.5291L22.5007 27.2603ZM25.5291 21.4993C25.2524 21.9773 25.4159 22.5891 25.8939 22.8656C26.372 23.1421 26.9837 22.9788 27.2603 22.5007L25.5291 21.4993ZM6.85377 6.76168C6.46131 7.15025 6.45815 7.78341 6.84673 8.17588C7.23531 8.56835 7.86845 8.57149 8.26092 8.18292L6.85377 6.76168ZM25.1497 6.85048C20.0561 1.75688 11.8251 1.70531 6.7652 6.7652L8.17941 8.17941C12.4449 3.91393 19.4096 3.93872 23.7356 8.26469L25.1497 6.85048ZM6.7652 6.7652L5.07669 8.45371L6.49091 9.86792L8.17941 8.17941L6.7652 6.7652ZM5.77877 10.1608L9.17284 10.1779L9.18289 8.17788L5.78883 8.16083L5.77877 10.1608ZM6.78379 9.15579L6.76673 5.76172L4.76676 5.77176L4.78381 9.16584L6.78379 9.15579ZM16 5C22.0751 5 27 9.92487 27 16H29C29 8.82029 23.1797 3 16 3V5ZM16 27C9.92487 27 5 22.0751 5 16H3C3 23.1797 8.82029 29 16 29V27ZM21.4993 25.5291C19.8824 26.4644 18.0052 27 16 27V29C18.3663 29 20.5876 28.3669 22.5007 27.2603L21.4993 25.5291ZM27 16C27 18.0052 26.4644 19.8824 25.5291 21.4993L27.2603 22.5007C28.3669 20.5876 29 18.3663 29 16H27ZM8.26092 8.18292C10.2494 6.21412 12.9819 5 16 5V3C12.4339 3 9.20151 4.43721 6.85377 6.76168L8.26092 8.18292Z" fill="#EEE8EC"/>
</svg>
