<svg width="24" height="24" viewBox="0 0 24 24" fill="none" xmlns="http://www.w3.org/2000/svg">
<path d="M17.0287 4.185L17.3512 5.16375C17.4474 5.47073 17.646 5.73545 17.9137 5.91375L18.75 6.45375C19.0239 6.63777 19.2265 6.91006 19.3241 7.22529C19.4217 7.54053 19.4083 7.87967 19.2862 8.18625L18.9712 8.97C18.8307 9.31629 18.8307 9.70371 18.9712 10.05L19.2825 10.8C19.4062 11.1001 19.4246 11.4332 19.3347 11.7451C19.2448 12.057 19.0519 12.3293 18.7875 12.5175L18.0487 13.05C17.7834 13.2408 17.5905 13.5157 17.5012 13.83L17.25 14.745C17.1591 15.0654 16.9599 15.3445 16.6864 15.5345C16.4129 15.7246 16.082 15.814 15.75 15.7875L14.9625 15.72C14.5923 15.69 14.2247 15.8027 13.935 16.035L13.185 16.6463C12.9284 16.8561 12.6071 16.9708 12.2756 16.9708C11.9441 16.9708 11.6228 16.8561 11.3662 16.6463L10.7025 16.125C10.4438 15.9117 10.119 15.795 9.78373 15.795H8.62498C8.29808 15.7951 7.98093 15.6837 7.72592 15.4791C7.47092 15.2746 7.29333 14.9891 7.22248 14.67L7.01623 13.7888C6.93543 13.4354 6.72371 13.1259 6.42373 12.9225L5.73748 12.4463C5.47321 12.2663 5.27633 12.0036 5.17788 11.6994C5.07943 11.3952 5.08501 11.0669 5.19373 10.7663L5.51623 9.88125C5.63442 9.55925 5.63442 9.20575 5.51623 8.88375L5.22748 8.11125C5.11286 7.80321 5.10647 7.46534 5.20939 7.15319C5.3123 6.84104 5.51838 6.57322 5.79373 6.39375L6.54373 5.9025C6.83766 5.71076 7.05215 5.419 7.14748 5.08125L7.37623 4.26375C7.46703 3.943 7.66603 3.66355 7.93945 3.47284C8.21287 3.28213 8.54386 3.19191 8.87623 3.2175L9.59998 3.28125C9.97013 3.31122 10.3377 3.19853 10.6275 2.96625L11.3137 2.41125C11.5712 2.20011 11.8939 2.08472 12.2269 2.08472C12.5598 2.08472 12.8825 2.20011 13.14 2.41125L13.7625 2.92875C14.0498 3.16943 14.42 3.2879 14.7937 3.25875L15.5437 3.2025C15.8656 3.17604 16.187 3.25853 16.4563 3.43672C16.7256 3.6149 16.9272 3.87844 17.0287 4.185Z" stroke="#0A0A0B" stroke-width="2"/>
<path d="M16.7212 15.4707L19.3462 20.0495C19.4137 20.1657 19.3462 20.2895 19.2599 20.2557L16.0312 18.9432C16.0188 18.9393 16.0058 18.938 15.9929 18.9396C15.9801 18.9411 15.9677 18.9454 15.9567 18.9522C15.9457 18.959 15.9362 18.968 15.929 18.9788C15.9218 18.9895 15.917 19.0017 15.9149 19.0145L15.5174 22.3895C15.4949 22.4982 15.3599 22.4832 15.2924 22.367L12.2437 16.8507" stroke="#0A0A0B" stroke-width="2" stroke-linecap="round"/>
<path d="M12.244 16.8507L9.42771 22.382C9.35646 22.4982 9.22896 22.5132 9.20271 22.4082L8.72646 18.9582C8.72392 18.9458 8.71878 18.934 8.71137 18.9237C8.70396 18.9134 8.69445 18.9048 8.68347 18.8984C8.67249 18.892 8.66029 18.888 8.64766 18.8867C8.63504 18.8854 8.62227 18.8867 8.61021 18.8907L5.47146 20.2445C5.36646 20.2745 5.31021 20.1545 5.38146 20.0345L8.00646 15.4707" stroke="#0A0A0B" stroke-width="2" stroke-linecap="round"/>
</svg>
