<svg width="16" height="17" viewBox="0 0 16 17" fill="none" xmlns="http://www.w3.org/2000/svg">
<g clip-path="url(#clip0_431_1097)">
<g clip-path="url(#clip1_431_1097)">
<path d="M13.1763 -0.432373C13.9883 -0.432173 14.6469 0.226311 14.647 1.03833V15.1555C14.647 15.9676 13.9883 16.626 13.1763 16.6262H2.82373C2.01155 16.6262 1.35303 15.9677 1.35303 15.1555V1.03833C1.35307 0.226187 2.01158 -0.432373 2.82373 -0.432373H13.1763ZM3.35303 14.6262H12.647V1.56763H3.35303V14.6262ZM7.05811 10.4504H6.97803C6.91258 10.6813 6.73301 10.91 6.47021 11.0618C6.02027 11.3214 5.4973 11.2584 5.30225 10.9211C5.10737 10.5836 5.31424 10.0991 5.76416 9.83911C6.04252 9.6784 6.34913 9.64028 6.58838 9.71509V6.68579L7.05811 6.56763V10.4504ZM10.353 9.97974H10.272C10.2065 10.2106 10.027 10.4393 9.76416 10.5911C9.31416 10.8507 8.79116 10.7878 8.59619 10.4504C8.40133 10.1129 8.60825 9.62837 9.05811 9.36841C9.33639 9.20774 9.6431 9.16966 9.88232 9.24438V5.86157L10.353 5.74438V9.97974ZM10.353 5.74438H9.88232V5.86157L7.05811 6.56763V6.21509H6.58838L10.353 5.27368V5.74438Z" fill="#151517"/>
</g>
</g>
<defs>
<clipPath id="clip0_431_1097">
<rect width="16" height="16" fill="white" transform="translate(0 0.0979004)"/>
</clipPath>
<clipPath id="clip1_431_1097">
<rect width="16" height="16" fill="white" transform="translate(0 0.0979004)"/>
</clipPath>
</defs>
</svg>
