<svg width="16" height="16" viewBox="0 0 16 16" fill="none" xmlns="http://www.w3.org/2000/svg">
<path d="M11.749 1.99902C11.9268 1.99902 12.099 2.03297 12.2656 2.09961C12.4323 2.16628 12.577 2.26608 12.6992 2.39941L13.6162 3.33301C13.7492 3.45507 13.8462 3.59927 13.9072 3.76562C13.9683 3.9322 13.999 4.09905 13.999 4.26562C13.999 4.4434 13.9683 4.6133 13.9072 4.77441C13.8461 4.93534 13.7494 5.08261 13.6162 5.21582L4.83301 13.999H1.99902V11.166L10.7988 2.38281C10.9322 2.26059 11.0801 2.16628 11.2412 2.09961C11.4022 2.03301 11.5714 1.99905 11.749 1.99902ZM3.33301 11.7158V12.666H4.28223L10.7988 6.14941L10.3154 5.68262L9.84961 5.19922L3.33301 11.7158Z" fill="white"/>
</svg>
