<svg width="24" height="24" viewBox="0 0 24 24" fill="none" xmlns="http://www.w3.org/2000/svg">
<g clip-path="url(#clip0_1233_3515)">
<path d="M19.7646 0.705811H4.23518C3.84533 0.705811 3.5293 1.02184 3.5293 1.41169V22.5882C3.5293 22.978 3.84533 23.294 4.23518 23.294H19.7646C20.1544 23.294 20.4705 22.978 20.4705 22.5882V1.41169C20.4705 1.02184 20.1544 0.705811 19.7646 0.705811Z" stroke="#474747" stroke-width="2"/>
<path d="M9.70625 16.4464C10.3815 16.0566 10.6919 15.33 10.3995 14.8236C10.1071 14.3171 9.32267 14.2226 8.64743 14.6125C7.97219 15.0023 7.66183 15.7289 7.95422 16.2353C8.2466 16.7418 9.03102 16.8363 9.70625 16.4464Z" fill="#575757"/>
<path d="M14.6477 15.7404C15.3229 15.3505 15.6333 14.6239 15.3409 14.1175C15.0485 13.6111 14.2641 13.5166 13.5888 13.9064C12.9136 14.2963 12.6032 15.0228 12.8956 15.5293C13.188 16.0357 13.9724 16.1302 14.6477 15.7404Z" fill="#575757"/>
<path fill-rule="evenodd" clip-rule="evenodd" d="M9.88281 9.17641H10.5887V15.5294H9.88281V9.17641ZM14.824 8.47053H15.5299V14.8235H14.824V8.47053ZM9.88281 9.17641L15.5299 7.76465V8.47053L9.88281 9.8823V9.17641Z" fill="#575757"/>
</g>
<defs>
<clipPath id="clip0_1233_3515">
<rect width="24" height="24" fill="white"/>
</clipPath>
</defs>
</svg>
