<svg width="23" height="21" viewBox="0 0 23 21" fill="none" xmlns="http://www.w3.org/2000/svg">
<path d="M5.656 1.438L5.312 4.126H17.093L16.749 1.438C16.749 0.625 16.093 0 15.28 0H7.092C6.279 0 5.654 0.625 5.654 1.438H5.656ZM1.438 5.594H20.969C21.782 5.594 22.407 6.219 22.407 7.032V15.595C22.407 16.408 21.782 17.033 20.969 17.033H18.313V21.002H4.094V17.033H1.438C0.625 17.033 0 16.408 0 15.595V7.032C0 6.219 0.625 5.594 1.438 5.594ZM16.875 19.563V10.282H5.531V19.563H16.875ZM15.188 12.969H7.063C6.875 12.969 6.719 12.781 6.719 12.594V12.156C6.719 11.968 6.875 11.812 7.063 11.812H15.188C15.376 11.812 15.563 11.968 15.563 12.156V12.594C15.563 12.782 15.375 12.969 15.188 12.969ZM15.188 15.563H7.063C6.875 15.563 6.719 15.375 6.719 15.188V14.75C6.719 14.562 6.875 14.406 7.063 14.406H15.188C15.376 14.406 15.563 14.562 15.563 14.75V15.188C15.563 15.376 15.375 15.563 15.188 15.563ZM15.188 18.156H7.063C6.875 18.156 6.719 17.968 6.719 17.781V17.343C6.719 17.155 6.875 16.999 7.063 16.999H15.188C15.376 16.999 15.563 17.155 15.563 17.343V17.781C15.563 17.969 15.375 18.156 15.188 18.156Z" fill="#151517"/>
</svg>
