<svg width="433" height="127" viewBox="0 0 433 127" fill="none" xmlns="http://www.w3.org/2000/svg">
<g filter="url(#filter0_dd_98_13429)">
<path d="M43.5674 31.4619C40.4166 23.585 46.2177 15.0166 54.7014 15.0166L101.445 15.0166C108.068 15.0166 113.436 20.3855 113.436 27.0083V79.4721C113.436 86.0949 108.068 91.4638 101.445 91.4638H54.7014C46.2177 91.4638 40.4166 82.8954 43.5674 75.0185L52.2787 53.2402L43.5674 31.4619Z" fill="#D4AF37"/>
<mask id="mask0_98_13429" style="mask-type:alpha" maskUnits="userSpaceOnUse" x="42" y="15" width="72" height="77">
<path d="M43.5674 31.4619C40.4166 23.585 46.2177 15.0166 54.7014 15.0166L101.445 15.0166C108.068 15.0166 113.436 20.3855 113.436 27.0083V79.4721C113.436 86.0949 108.068 91.4638 101.445 91.4638H54.7014C46.2177 91.4638 40.4166 82.8954 43.5674 75.0185L50.4973 57.6938C51.6408 54.8349 51.6408 51.6455 50.4973 48.7866L43.5674 31.4619Z" fill="url(#paint0_linear_98_13429)"/>
</mask>
<g mask="url(#mask0_98_13429)">
<path d="M113.436 58.4866L83.457 58.4866L98.4467 74.9752L113.436 91.4638V58.4866Z" fill="black" fill-opacity="0.4"/>
</g>
<path d="M389.432 31.4619C392.582 23.585 386.781 15.0166 378.298 15.0166L331.554 15.0166C324.931 15.0166 319.563 20.3855 319.563 27.0083V79.4721C319.563 86.0949 324.931 91.4638 331.554 91.4638H378.298C386.781 91.4638 392.582 82.8954 389.432 75.0185L380.72 53.2402L389.432 31.4619Z" fill="#D4AF37"/>
<mask id="mask1_98_13429" style="mask-type:alpha" maskUnits="userSpaceOnUse" x="319" y="15" width="72" height="77">
<path d="M389.432 31.4619C392.582 23.585 386.781 15.0166 378.298 15.0166L331.554 15.0166C324.931 15.0166 319.563 20.3855 319.563 27.0083V79.4721C319.563 86.0949 324.931 91.4638 331.554 91.4638H378.298C386.781 91.4638 392.582 82.8954 389.432 75.0185L382.502 57.6938C381.358 54.8349 381.358 51.6455 382.502 48.7866L389.432 31.4619Z" fill="url(#paint1_linear_98_13429)"/>
</mask>
<g mask="url(#mask1_98_13429)">
<path d="M319.563 58.4866L349.542 58.4866L334.552 74.9752L319.563 91.4638V58.4866Z" fill="black" fill-opacity="0.4"/>
</g>
<rect x="90.5322" y="9" width="251.936" height="59.9793" rx="11.9917" fill="#D4AF37"/>
<path d="M148.071 35.5637C148.003 34.8766 147.71 34.3429 147.194 33.9625C146.677 33.5821 145.976 33.3919 145.09 33.3919C144.488 33.3919 143.98 33.477 143.566 33.6474C143.151 33.812 142.833 34.042 142.612 34.3372C142.396 34.6325 142.288 34.9675 142.288 35.3422C142.277 35.6545 142.342 35.9271 142.484 36.1598C142.632 36.3926 142.833 36.5942 143.089 36.7645C143.344 36.9292 143.639 37.074 143.974 37.1989C144.309 37.3181 144.667 37.4203 145.048 37.5055L146.615 37.8803C147.375 38.0506 148.074 38.2777 148.71 38.5616C149.346 38.8455 149.896 39.1947 150.362 39.6092C150.828 40.0237 151.188 40.512 151.444 41.0741C151.705 41.6362 151.838 42.2806 151.844 43.0074C151.838 44.0748 151.566 45.0003 151.026 45.7839C150.493 46.5618 149.72 47.1665 148.71 47.598C147.705 48.0238 146.493 48.2367 145.073 48.2367C143.665 48.2367 142.439 48.021 141.394 47.5895C140.355 47.1579 139.543 46.5192 138.958 45.6732C138.379 44.8215 138.075 43.7682 138.047 42.5134H141.615C141.655 43.0982 141.822 43.5865 142.118 43.9783C142.419 44.3644 142.819 44.6568 143.319 44.8555C143.824 45.0486 144.395 45.1451 145.031 45.1451C145.655 45.1451 146.197 45.0543 146.657 44.8726C147.123 44.6909 147.483 44.4382 147.739 44.1146C147.994 43.7909 148.122 43.419 148.122 42.9989C148.122 42.6071 148.006 42.2778 147.773 42.0109C147.546 41.7441 147.211 41.5169 146.768 41.3296C146.331 41.1422 145.794 40.9719 145.158 40.8186L143.259 40.3416C141.788 39.9839 140.627 39.4246 139.776 38.6638C138.924 37.903 138.501 36.8781 138.507 35.5892C138.501 34.5331 138.782 33.6105 139.35 32.8212C139.923 32.032 140.71 31.416 141.709 30.9731C142.708 30.5302 143.844 30.3088 145.116 30.3088C146.41 30.3088 147.54 30.5302 148.505 30.9731C149.476 31.416 150.231 32.032 150.771 32.8212C151.31 33.6105 151.588 34.5246 151.606 35.5637H148.071ZM156.453 47.9897H152.501L158.523 30.5472H163.275L169.288 47.9897H165.336L160.967 34.5331H160.831L156.453 47.9897ZM156.206 41.1337H165.541V44.0124H156.206V41.1337ZM179.972 35.5637C179.904 34.8766 179.611 34.3429 179.095 33.9625C178.578 33.5821 177.877 33.3919 176.991 33.3919C176.389 33.3919 175.881 33.477 175.466 33.6474C175.052 33.812 174.734 34.042 174.513 34.3372C174.297 34.6325 174.189 34.9675 174.189 35.3422C174.178 35.6545 174.243 35.9271 174.385 36.1598C174.532 36.3926 174.734 36.5942 174.989 36.7645C175.245 36.9292 175.54 37.074 175.875 37.1989C176.21 37.3181 176.568 37.4203 176.948 37.5055L178.515 37.8803C179.276 38.0506 179.975 38.2777 180.611 38.5616C181.246 38.8455 181.797 39.1947 182.263 39.6092C182.728 40.0237 183.089 40.512 183.344 41.0741C183.606 41.6362 183.739 42.2806 183.745 43.0074C183.739 44.0748 183.467 45.0003 182.927 45.7839C182.393 46.5618 181.621 47.1665 180.611 47.598C179.606 48.0238 178.393 48.2367 176.974 48.2367C175.566 48.2367 174.339 48.021 173.295 47.5895C172.256 47.1579 171.444 46.5192 170.859 45.6732C170.28 44.8215 169.976 43.7682 169.947 42.5134H173.516C173.556 43.0982 173.723 43.5865 174.019 43.9783C174.319 44.3644 174.72 44.6568 175.219 44.8555C175.725 45.0486 176.295 45.1451 176.931 45.1451C177.556 45.1451 178.098 45.0543 178.558 44.8726C179.024 44.6909 179.384 44.4382 179.64 44.1146C179.895 43.7909 180.023 43.419 180.023 42.9989C180.023 42.6071 179.907 42.2778 179.674 42.0109C179.447 41.7441 179.112 41.5169 178.669 41.3296C178.232 41.1422 177.695 40.9719 177.059 40.8186L175.16 40.3416C173.689 39.9839 172.528 39.4246 171.676 38.6638C170.825 37.903 170.402 36.8781 170.407 35.5892C170.402 34.5331 170.683 33.6105 171.251 32.8212C171.824 32.032 172.61 31.416 173.61 30.9731C174.609 30.5302 175.745 30.3088 177.016 30.3088C178.311 30.3088 179.441 30.5302 180.406 30.9731C181.377 31.416 182.132 32.032 182.672 32.8212C183.211 33.6105 183.489 34.5246 183.506 35.5637H179.972ZM185.746 47.9897V30.5472H192.627C193.945 30.5472 195.069 30.7829 196 31.2541C196.937 31.7197 197.649 32.3812 198.138 33.2386C198.632 34.0903 198.879 35.0924 198.879 36.245C198.879 37.4033 198.629 38.3998 198.129 39.2344C197.629 40.0634 196.906 40.6993 195.957 41.1422C195.015 41.5851 193.874 41.8065 192.534 41.8065H187.926V38.8427H191.937C192.641 38.8427 193.226 38.7461 193.692 38.5531C194.157 38.36 194.504 38.0705 194.731 37.6844C194.964 37.2983 195.08 36.8185 195.08 36.245C195.08 35.6659 194.964 35.1776 194.731 34.7801C194.504 34.3827 194.155 34.0817 193.683 33.8773C193.218 33.6673 192.63 33.5622 191.92 33.5622H189.433V47.9897H185.746ZM195.165 40.052L199.5 47.9897H195.429L191.188 40.052H195.165ZM205.412 33.5878V30.5472H219.737V33.5878H214.397V47.9897H210.752V33.5878H205.412ZM221.549 47.9897V34.9079H225.177V47.9897H221.549ZM223.371 33.2215C222.832 33.2215 222.369 33.0427 221.983 32.685C221.603 32.3216 221.412 31.8872 221.412 31.3819C221.412 30.8822 221.603 30.4536 221.983 30.0959C222.369 29.7325 222.832 29.5508 223.371 29.5508C223.911 29.5508 224.371 29.7325 224.751 30.0959C225.137 30.4536 225.33 30.8822 225.33 31.3819C225.33 31.8872 225.137 32.3216 224.751 32.685C224.371 33.0427 223.911 33.2215 223.371 33.2215ZM233.565 48.2453C232.22 48.2453 231.061 47.9727 230.09 47.4276C229.125 46.8769 228.381 46.099 227.859 45.094C227.337 44.0834 227.075 42.8882 227.075 41.5084C227.075 40.1628 227.337 38.9818 227.859 37.9654C228.381 36.9491 229.117 36.157 230.065 35.5892C231.019 35.0214 232.137 34.7375 233.421 34.7375C234.284 34.7375 235.087 34.8766 235.831 35.1549C236.58 35.4274 237.233 35.839 237.79 36.3898C238.352 36.9406 238.789 37.6333 239.101 38.4679C239.414 39.2969 239.57 40.2678 239.57 41.3807V42.3771H228.523V40.1287H236.154C236.154 39.6063 236.041 39.1436 235.814 38.7405C235.587 38.3373 235.272 38.0222 234.868 37.7951C234.471 37.5623 234.008 37.4459 233.48 37.4459C232.929 37.4459 232.441 37.5736 232.015 37.8291C231.595 38.079 231.266 38.4168 231.027 38.8427C230.789 39.2628 230.667 39.7312 230.661 40.2479V42.3857C230.661 43.0329 230.78 43.5922 231.019 44.0635C231.263 44.5347 231.606 44.8981 232.049 45.1536C232.492 45.4091 233.017 45.5369 233.625 45.5369C234.028 45.5369 234.397 45.4801 234.732 45.3666C235.067 45.253 235.354 45.0827 235.592 44.8555C235.831 44.6284 236.013 44.3502 236.137 44.0209L239.493 44.2423C239.323 45.0486 238.974 45.7527 238.445 46.3545C237.923 46.9507 237.247 47.4163 236.418 47.7513C235.595 48.0806 234.644 48.2453 233.565 48.2453ZM241.458 47.9897V34.9079H244.975V37.1904H245.111C245.35 36.3784 245.75 35.7652 246.312 35.3507C246.874 34.9306 247.522 34.7205 248.254 34.7205C248.436 34.7205 248.632 34.7319 248.842 34.7546C249.052 34.7773 249.236 34.8085 249.395 34.8483V38.0676C249.225 38.0165 248.989 37.9711 248.689 37.9314C248.388 37.8916 248.112 37.8717 247.862 37.8717C247.329 37.8717 246.852 37.9881 246.432 38.2209C246.017 38.448 245.688 38.766 245.444 39.1748C245.205 39.5836 245.086 40.0549 245.086 40.5886V47.9897H241.458ZM255.931 47.9897V30.5472L259.619 30.5472V44.9492H267.096V47.9897H255.931ZM268.991 47.9897V34.9079H272.619V47.9897H268.991ZM270.813 33.2215C270.274 33.2215 269.811 33.0427 269.425 32.685C269.045 32.3216 268.855 31.8872 268.855 31.3819C268.855 30.8822 269.045 30.4536 269.425 30.0959C269.811 29.7325 270.274 29.5508 270.813 29.5508C271.353 29.5508 271.813 29.7325 272.193 30.0959C272.579 30.4536 272.772 30.8822 272.772 31.3819C272.772 31.8872 272.579 32.3216 272.193 32.685C271.813 33.0427 271.353 33.2215 270.813 33.2215ZM285.93 38.6382L282.609 38.8427C282.552 38.5588 282.43 38.3033 282.242 38.0761C282.055 37.8433 281.808 37.6588 281.502 37.5225C281.201 37.3806 280.84 37.3096 280.42 37.3096C279.858 37.3096 279.384 37.4289 278.998 37.6673C278.611 37.9001 278.418 38.2124 278.418 38.6042C278.418 38.9165 278.543 39.1805 278.793 39.3962C279.043 39.612 279.472 39.7852 280.079 39.9158L282.447 40.3927C283.719 40.6539 284.667 41.0741 285.292 41.6532C285.916 42.2324 286.228 42.9932 286.228 43.9357C286.228 44.7931 285.976 45.5454 285.47 46.1927C284.971 46.84 284.284 47.3453 283.409 47.7087C282.541 48.0664 281.538 48.2453 280.403 48.2453C278.671 48.2453 277.291 47.8847 276.264 47.1636C275.242 46.4368 274.643 45.4489 274.467 44.1997L278.035 44.0124C278.143 44.5404 278.404 44.9436 278.819 45.2218C279.233 45.4943 279.764 45.6306 280.411 45.6306C281.047 45.6306 281.558 45.5085 281.944 45.2644C282.336 45.0145 282.535 44.6937 282.541 44.302C282.535 43.9726 282.396 43.7029 282.123 43.4929C281.851 43.2771 281.431 43.1124 280.863 42.9989L278.597 42.5475C277.32 42.292 276.369 41.8491 275.744 41.2189C275.125 40.5886 274.816 39.7852 274.816 38.8086C274.816 37.9683 275.043 37.2443 275.497 36.6368C275.957 36.0293 276.602 35.5608 277.43 35.2315C278.265 34.9022 279.242 34.7375 280.36 34.7375C282.013 34.7375 283.313 35.0867 284.261 35.7851C285.215 36.4835 285.771 37.4345 285.93 38.6382ZM294.992 34.9079V37.6333H287.114V34.9079H294.992ZM288.902 31.7737H292.53V43.9698C292.53 44.3048 292.581 44.566 292.684 44.7533C292.786 44.935 292.928 45.0628 293.109 45.1366C293.297 45.2104 293.513 45.2473 293.757 45.2473C293.927 45.2473 294.097 45.2331 294.268 45.2047C294.438 45.1707 294.569 45.1451 294.659 45.1281L295.23 47.8279C295.048 47.8847 294.793 47.95 294.464 48.0238C294.134 48.1033 293.734 48.1516 293.263 48.1686C292.388 48.2027 291.622 48.0863 290.963 47.8194C290.31 47.5525 289.802 47.1381 289.439 46.5759C289.075 46.0138 288.896 45.3041 288.902 44.4467V31.7737Z" fill="white"/>
</g>
<defs>
<filter id="filter0_dd_98_13429" x="1.90735e-06" y="1.90735e-06" width="433" height="126.464" filterUnits="userSpaceOnUse" color-interpolation-filters="sRGB">
<feFlood flood-opacity="0" result="BackgroundImageFix"/>
<feColorMatrix in="SourceAlpha" type="matrix" values="0 0 0 0 0 0 0 0 0 0 0 0 0 0 0 0 0 0 127 0" result="hardAlpha"/>
<feMorphology radius="8" operator="erode" in="SourceAlpha" result="effect1_dropShadow_98_13429"/>
<feOffset dy="8"/>
<feGaussianBlur stdDeviation="8"/>
<feColorMatrix type="matrix" values="0 0 0 0 0 0 0 0 0 0 0 0 0 0 0 0 0 0 0.3 0"/>
<feBlend mode="normal" in2="BackgroundImageFix" result="effect1_dropShadow_98_13429"/>
<feColorMatrix in="SourceAlpha" type="matrix" values="0 0 0 0 0 0 0 0 0 0 0 0 0 0 0 0 0 0 127 0" result="hardAlpha"/>
<feMorphology radius="5" operator="erode" in="SourceAlpha" result="effect2_dropShadow_98_13429"/>
<feOffset dy="13"/>
<feGaussianBlur stdDeviation="13.5"/>
<feColorMatrix type="matrix" values="0 0 0 0 0.196078 0 0 0 0 0.196078 0 0 0 0 0.364706 0 0 0 0.25 0"/>
<feBlend mode="normal" in2="effect1_dropShadow_98_13429" result="effect2_dropShadow_98_13429"/>
<feBlend mode="normal" in="SourceGraphic" in2="effect2_dropShadow_98_13429" result="shape"/>
</filter>
<linearGradient id="paint0_linear_98_13429" x1="75.2129" y1="15.0166" x2="75.2129" y2="91.4638" gradientUnits="userSpaceOnUse">
<stop stop-color="#FF0055"/>
<stop offset="1" stop-color="#C70042"/>
</linearGradient>
<linearGradient id="paint1_linear_98_13429" x1="357.786" y1="15.0166" x2="357.786" y2="91.4638" gradientUnits="userSpaceOnUse">
<stop stop-color="#FF0055"/>
<stop offset="1" stop-color="#C70042"/>
</linearGradient>
</defs>
</svg>
