<?xml version="1.0" standalone="no"?>
<!DOCTYPE svg PUBLIC "-//W3C//DTD SVG 20010904//EN"
 "http://www.w3.org/TR/2001/REC-SVG-20010904/DTD/svg10.dtd">
<svg version="1.0" xmlns="http://www.w3.org/2000/svg"
 width="174.000000pt" height="369.000000pt" viewBox="0 0 174.000000 369.000000"
 <!-- preserveAspectRatio="xMidYMid meet"> -->

<g transform="translate(0.000000,369.000000) scale(0.100000,-0.100000)"
fill="#000000" stroke="none">
<path d="M1140 2415 l0 -1225 -49 35 c-187 135 -441 152 -658 45 -269 -133
-379 -445 -245 -694 37 -69 133 -169 201 -210 31 -19 92 -47 136 -62 70 -24
95 -28 200 -28 108 0 129 3 205 30 198 69 341 222 379 402 8 37 11 480 11
1492 l0 1440 -90 0 -90 0 0 -1225z"/>
</g>
</svg>
