<svg width="48" height="49" viewBox="0 0 48 49" fill="none" xmlns="http://www.w3.org/2000/svg">
<path d="M18.5004 44.0979L17.7004 37.6979C17.2671 37.5312 16.8587 37.3312 16.4754 37.0979C16.0921 36.8646 15.7171 36.6146 15.3504 36.3479L9.40039 38.8479L3.90039 29.3479L9.05039 25.4479C9.01706 25.2146 9.00039 24.9896 9.00039 24.7729V23.4229C9.00039 23.2062 9.01706 22.9812 9.05039 22.7479L3.90039 18.8479L9.40039 9.3479L15.3504 11.8479C15.7171 11.5812 16.1004 11.3312 16.5004 11.0979C16.9004 10.8646 17.3004 10.6646 17.7004 10.4979L18.5004 4.0979H29.5004L30.3004 10.4979C30.7337 10.6646 31.1421 10.8646 31.5254 11.0979C31.9087 11.3312 32.2837 11.5812 32.6504 11.8479L38.6004 9.3479L44.1004 18.8479L38.9504 22.7479C38.9837 22.9812 39.0004 23.2062 39.0004 23.4229V24.7729C39.0004 24.9896 38.9671 25.2146 38.9004 25.4479L44.0504 29.3479L38.5504 38.8479L32.6504 36.3479C32.2837 36.6146 31.9004 36.8646 31.5004 37.0979C31.1004 37.3312 30.7004 37.5312 30.3004 37.6979L29.5004 44.0979H18.5004ZM22.0004 40.0979H25.9504L26.6504 34.7979C27.6837 34.5312 28.6421 34.1396 29.5254 33.6229C30.4087 33.1062 31.2171 32.4812 31.9504 31.7479L36.9004 33.7979L38.8504 30.3979L34.5504 27.1479C34.7171 26.6812 34.8337 26.1896 34.9004 25.6729C34.9671 25.1562 35.0004 24.6312 35.0004 24.0979C35.0004 23.5646 34.9671 23.0396 34.9004 22.5229C34.8337 22.0062 34.7171 21.5146 34.5504 21.0479L38.8504 17.7979L36.9004 14.3979L31.9504 16.4979C31.2171 15.7312 30.4087 15.0896 29.5254 14.5729C28.6421 14.0562 27.6837 13.6646 26.6504 13.3979L26.0004 8.0979H22.0504L21.3504 13.3979C20.3171 13.6646 19.3587 14.0562 18.4754 14.5729C17.5921 15.0896 16.7837 15.7146 16.0504 16.4479L11.1004 14.3979L9.15039 17.7979L13.4504 20.9979C13.2837 21.4979 13.1671 21.9979 13.1004 22.4979C13.0337 22.9979 13.0004 23.5312 13.0004 24.0979C13.0004 24.6312 13.0337 25.1479 13.1004 25.6479C13.1671 26.1479 13.2837 26.6479 13.4504 27.1479L9.15039 30.3979L11.1004 33.7979L16.0504 31.6979C16.7837 32.4646 17.5921 33.1062 18.4754 33.6229C19.3587 34.1396 20.3171 34.5312 21.3504 34.7979L22.0004 40.0979ZM24.1004 31.0979C26.0337 31.0979 27.6837 30.4146 29.0504 29.0479C30.4171 27.6812 31.1004 26.0312 31.1004 24.0979C31.1004 22.1646 30.4171 20.5146 29.0504 19.1479C27.6837 17.7812 26.0337 17.0979 24.1004 17.0979C22.1337 17.0979 20.4754 17.7812 19.1254 19.1479C17.7754 20.5146 17.1004 22.1646 17.1004 24.0979C17.1004 26.0312 17.7754 27.6812 19.1254 29.0479C20.4754 30.4146 22.1337 31.0979 24.1004 31.0979Z" fill="#FEFEFE"/>
</svg>
