<?xml version="1.0" encoding="UTF-8"?>
<svg version="1.1" xmlns="http://www.w3.org/2000/svg" width="48" height="49">
<path d="M0 0 C0 7.92 0 15.84 0 24 C-4.46075038 22.21569985 -7.95459074 20.1275774 -11.8125 17.375 C-12.7087207 16.74464844 -12.7087207 16.74464844 -13.62304688 16.1015625 C-15.08520565 15.07220272 -16.54304899 14.0367177 -18 13 C-16.89962823 9.69888469 -16.45494288 9.34498999 -13.69140625 7.51953125 C-13.02689453 7.07802734 -12.36238281 6.63652344 -11.67773438 6.18164062 C-10.97970703 5.72982422 -10.28167969 5.27800781 -9.5625 4.8125 C-8.86833984 4.34908203 -8.17417969 3.88566406 -7.45898438 3.40820312 C-2.27389774 0 -2.27389774 0 0 0 Z " fill="#FDFDFD" transform="translate(37,12)"/>
<path d="M0 0 C1.32 0 2.64 0 4 0 C4 8.25 4 16.5 4 25 C2.68 25 1.36 25 0 25 C0 16.75 0 8.5 0 0 Z " fill="#FDFDFD" transform="translate(11,12)"/>
</svg>
