<svg width="71" height="87" viewBox="0 0 71 87" fill="none" xmlns="http://www.w3.org/2000/svg">
<g filter="url(#filter0_d_1179_2361)">
<path d="M42.4398 16H28.4398C27.8209 16 27.2274 16.2458 26.7899 16.6834C26.3523 17.121 26.1064 17.7145 26.1064 18.3333V32.3333C26.1084 32.7176 26.2053 33.0955 26.3885 33.4334C26.5717 33.7712 26.8355 34.0586 27.1564 34.27L34.1564 38.9367C34.5374 39.1876 34.9836 39.3213 35.4398 39.3213C35.896 39.3213 36.3421 39.1876 36.7231 38.9367L43.7231 34.27C44.0441 34.0586 44.3079 33.7712 44.4911 33.4334C44.6742 33.0955 44.7711 32.7176 44.7731 32.3333V18.3333C44.7731 17.7145 44.5273 17.121 44.0897 16.6834C43.6521 16.2458 43.0586 16 42.4398 16Z" fill="#0A0A0B"/>
<path d="M44.773 20.6667H26.1064C25.4875 20.6667 24.894 20.4208 24.4565 19.9832C24.0189 19.5457 23.773 18.9522 23.773 18.3333C23.773 17.7145 24.0189 17.121 24.4565 16.6834C24.894 16.2458 25.4875 16 26.1064 16H44.773C45.3919 16 45.9854 16.2458 46.423 16.6834C46.8605 17.121 47.1064 17.7145 47.1064 18.3333C47.1064 18.9522 46.8605 19.5457 46.423 19.9832C45.9854 20.4208 45.3919 20.6667 44.773 20.6667ZM50.793 45.2133C50.6597 44.7911 50.4091 44.4155 50.0703 44.1304C49.7315 43.8453 49.3185 43.6625 48.8797 43.6033L40.993 42.53L37.493 35.9033C37.2931 35.5329 36.9967 35.2235 36.6352 35.0078C36.2737 34.7921 35.8606 34.6783 35.4397 34.6783C35.0188 34.6783 34.6057 34.7921 34.2442 35.0078C33.8827 35.2235 33.5863 35.5329 33.3864 35.9033L29.8864 42.53L21.9997 43.6033C21.5609 43.6625 21.148 43.8453 20.8092 44.1304C20.4704 44.4155 20.2197 44.7911 20.0864 45.2133C19.9712 45.6248 19.9712 46.06 20.0864 46.4715C20.2016 46.8829 20.4276 47.2548 20.7397 47.5467L26.3397 52.6567L25.033 59.82C24.919 60.2631 24.9379 60.73 25.0871 61.1625C25.2364 61.5951 25.5095 61.9742 25.8726 62.2527C26.2356 62.5312 26.6726 62.6968 27.129 62.7289C27.5854 62.761 28.0412 62.6582 28.4397 62.4333L35.4397 58.9567L42.4397 62.4333C42.7597 62.5883 43.1108 62.6681 43.4664 62.6667C43.9712 62.6667 44.4625 62.5029 44.8664 62.2C45.2199 61.9349 45.491 61.5749 45.6479 61.1619C45.8049 60.7488 45.8414 60.2996 45.753 59.8667L44.4464 52.7033L50.0464 47.5933C50.3833 47.3079 50.6323 46.9328 50.7644 46.5115C50.8966 46.0902 50.9065 45.64 50.793 45.2133Z" fill="url(#paint0_linear_1179_2361)"/>
</g>
<defs>
<filter id="filter0_d_1179_2361" x="0" y="0" width="70.8716" height="86.7346" filterUnits="userSpaceOnUse" color-interpolation-filters="sRGB">
<feFlood flood-opacity="0" result="BackgroundImageFix"/>
<feColorMatrix in="SourceAlpha" type="matrix" values="0 0 0 0 0 0 0 0 0 0 0 0 0 0 0 0 0 0 127 0" result="hardAlpha"/>
<feOffset dy="4"/>
<feGaussianBlur stdDeviation="10"/>
<feColorMatrix type="matrix" values="0 0 0 0 1 0 0 0 0 0.843137 0 0 0 0 0 0 0 0 0.6 0"/>
<feBlend mode="normal" in2="BackgroundImageFix" result="effect1_dropShadow_1179_2361"/>
<feBlend mode="normal" in="SourceGraphic" in2="effect1_dropShadow_1179_2361" result="shape"/>
</filter>
<linearGradient id="paint0_linear_1179_2361" x1="35.4357" y1="16" x2="35.4357" y2="62.7347" gradientUnits="userSpaceOnUse">
<stop stop-color="#FFD700"/>
<stop offset="0.5" stop-color="#FFA500"/>
<stop offset="1" stop-color="#FF8C00"/>
</linearGradient>
</defs>
</svg>
