<svg width="17" height="23" viewBox="0 0 17 23" fill="none" xmlns="http://www.w3.org/2000/svg">
<path d="M13.0287 3.18476L13.3512 4.16351C13.4474 4.47049 13.646 4.73521 13.9137 4.91351L14.75 5.45351C15.0239 5.63752 15.2265 5.90982 15.3241 6.22505C15.4217 6.54028 15.4083 6.87943 15.2862 7.18601L14.9712 7.96976C14.8307 8.31605 14.8307 8.70347 14.9712 9.04976L15.2825 9.79976C15.4062 10.0998 15.4246 10.433 15.3347 10.7449C15.2448 11.0568 15.0519 11.329 14.7875 11.5173L14.0487 12.0498C13.7834 12.2405 13.5905 12.5154 13.5012 12.8298L13.25 13.7448C13.1591 14.0652 12.9599 14.3442 12.6864 14.5343C12.4129 14.7244 12.082 14.8138 11.75 14.7873L10.9625 14.7198C10.5923 14.6898 10.2247 14.8025 9.93498 15.0348L9.18498 15.646C8.9284 15.8559 8.60711 15.9706 8.27561 15.9706C7.94411 15.9706 7.62282 15.8559 7.36623 15.646L6.70248 15.1248C6.44384 14.9114 6.11901 14.7947 5.78373 14.7948H4.62498C4.29808 14.7948 3.98093 14.6834 3.72592 14.4789C3.47092 14.2743 3.29333 13.9889 3.22248 13.6698L3.01623 12.7885C2.93543 12.4352 2.72371 12.1257 2.42373 11.9223L1.73748 11.446C1.47321 11.2661 1.27633 11.0033 1.17788 10.6991C1.07943 10.395 1.08501 10.0667 1.19373 9.76601L1.51623 8.88101C1.63442 8.55901 1.63442 8.20551 1.51623 7.88351L1.22748 7.11101C1.11286 6.80297 1.10647 6.46509 1.20939 6.15295C1.3123 5.8408 1.51838 5.57297 1.79373 5.39351L2.54373 4.90226C2.83766 4.71051 3.05215 4.41875 3.14748 4.08101L3.37623 3.26351C3.46703 2.94275 3.66603 2.6633 3.93945 2.47259C4.21287 2.28188 4.54386 2.19167 4.87623 2.21726L5.59998 2.28101C5.97013 2.31098 6.33773 2.19829 6.62748 1.96601L7.31373 1.41101C7.5712 1.19987 7.89389 1.08447 8.22686 1.08447C8.55983 1.08447 8.88252 1.19987 9.13998 1.41101L9.76248 1.92851C10.0498 2.16919 10.42 2.28766 10.7937 2.25851L11.5437 2.20226C11.8656 2.1758 12.187 2.25829 12.4563 2.43647C12.7256 2.61466 12.9272 2.8782 13.0287 3.18476Z" stroke="white" stroke-width="2"/>
<path d="M12.7212 14.4707L15.3462 19.0495C15.4137 19.1657 15.3462 19.2895 15.2599 19.2557L12.0312 17.9432C12.0188 17.9393 12.0058 17.938 11.9929 17.9396C11.9801 17.9411 11.9677 17.9454 11.9567 17.9522C11.9457 17.959 11.9362 17.968 11.929 17.9788C11.9218 17.9895 11.917 18.0017 11.9149 18.0145L11.5174 21.3895C11.4949 21.4982 11.3599 21.4832 11.2924 21.367L8.24365 15.8507" stroke="white" stroke-width="2" stroke-linecap="round"/>
<path d="M8.24372 15.8507L5.42747 21.382C5.35622 21.4982 5.22872 21.5132 5.20247 21.4082L4.72622 17.9582C4.72368 17.9458 4.71853 17.934 4.71112 17.9237C4.70371 17.9134 4.69421 17.9048 4.68323 17.8984C4.67225 17.892 4.66005 17.888 4.64742 17.8867C4.63479 17.8854 4.62203 17.8867 4.60997 17.8907L1.47122 19.2445C1.36622 19.2745 1.30997 19.1545 1.38122 19.0345L4.00622 14.4707" stroke="white" stroke-width="2" stroke-linecap="round"/>
</svg>
